<svg width="101" height="78" viewBox="0 0 101 78" fill="none" xmlns="http://www.w3.org/2000/svg">
<path d="M44 26.5V59.5" stroke="#F6F6F6" stroke-width="1.42466"/>
<path d="M29 43.5H60" stroke="#F6F6F6" stroke-width="1.42466"/>
<rect x="12.2877" y="8.78767" width="65.4247" height="68.4247" rx="10.21" stroke="#F6F6F6" stroke-width="1.42466"/>
<path d="M22 9L22.2814 7.49194C22.5064 6.28651 23.0492 5.16302 23.8537 4.23762C24.814 3.13316 26.1011 2.3634 27.5284 2.04003L28.745 1.76442C29.5206 1.58869 30.3134 1.5 31.1088 1.5H78.1163C79.2855 1.5 80.4477 1.6799 81.5621 2.03338L82.569 2.35274C83.809 2.74605 84.9257 3.45466 85.8095 4.40917C86.5666 5.22677 87.1323 6.20257 87.4656 7.26584L87.5793 7.6283C87.8584 8.51871 88.0004 9.44642 88.0004 10.3796V59.9589C88.0004 60.2815 87.9774 60.6037 87.9317 60.923C87.707 62.491 86.9416 63.9312 85.7679 64.9948L85.688 65.0672C85.4256 65.3051 85.1456 65.523 84.8506 65.719L84.7191 65.8064C83.4562 66.6457 82.0054 67.1599 80.4959 67.3032L78.4231 67.5" stroke="#F6F6F6" stroke-width="1.42466"/>
</svg>
