<svg width="101" height="78" viewBox="0 0 101 78" fill="none" xmlns="http://www.w3.org/2000/svg">
<path fill-rule="evenodd" clip-rule="evenodd" d="M78.5921 37.9867H58.8V36.5617H78.5921C79.0702 36.5617 79.5452 36.6404 79.9986 36.7948L80.3849 36.9264C81.0387 37.1489 81.6324 37.5236 82.1189 38.0206L82.84 38.7572C83.1982 39.1232 83.4921 39.549 83.7087 40.0162L88.851 51.1057L89.274 52.4019C89.4237 52.8606 89.5 53.3409 89.5 53.8242V65.2176C89.5 65.9588 89.2114 66.6698 88.6974 67.1949C88.181 67.7224 87.4794 68.019 86.7478 68.019H82.8V66.5939H86.7478C87.1073 66.5939 87.4519 66.4483 87.7057 66.1891C87.9582 65.9311 88.1 65.5818 88.1 65.2176V53.8242C88.1 53.4935 88.0478 53.1649 87.9454 52.851L87.549 51.6363L82.4427 40.6245C82.2944 40.3048 82.0934 40.0134 81.8483 39.763L81.1272 39.0265C80.7943 38.6864 80.3881 38.43 79.9408 38.2777L79.5544 38.1462C79.2442 38.0406 78.9192 37.9867 78.5921 37.9867Z" fill="#F6F6F6"/>
<path fill-rule="evenodd" clip-rule="evenodd" d="M65.4 68.019H35.4V66.5939H65.4V68.019Z" fill="#F6F6F6"/>
<path fill-rule="evenodd" clip-rule="evenodd" d="M16.1503 29.8536C16.8407 29.4304 17.6314 29.2069 18.4373 29.2069H22.2V30.6319H18.4373C17.8858 30.6319 17.3449 30.7848 16.8725 31.0744L15.6922 31.7978C15.1981 32.1006 14.7991 32.5405 14.5419 33.066L14.2183 33.727C14.009 34.1547 13.9 34.626 13.9 35.1039V62.9589C13.9 63.9289 14.3478 64.8424 15.1092 65.4257L15.4173 65.6618C15.741 65.9098 16.1102 66.0893 16.5032 66.1896L17.723 66.5011C17.9644 66.5628 18.2123 66.5939 18.4612 66.5939H19.8V68.019H18.4612C18.0975 68.019 17.7351 67.9734 17.3823 67.8833L16.1626 67.5718C15.5882 67.4251 15.0485 67.1628 14.5753 66.8003L14.2672 66.5643C13.1545 65.7117 12.5 64.3765 12.5 62.9589V35.1039C12.5 34.4055 12.6592 33.7167 12.9652 33.0916L13.2888 32.4305C13.6647 31.6626 14.2479 31.0196 14.97 30.577L16.1503 29.8536Z" fill="#F6F6F6"/>
<path fill-rule="evenodd" clip-rule="evenodd" d="M55.2973 67.8441C54.9 67.9601 54.4887 68.019 54.0753 68.019H35.4V66.5939H54.0753C54.3581 66.5939 54.6396 66.5537 54.9114 66.4743L55.9027 66.185C57.2036 65.8054 58.1 64.5945 58.1 63.2171V33.941C58.1 33.1241 57.7819 32.3404 57.2154 31.7617L56.9984 31.5401C56.4292 30.9587 55.6561 30.6319 54.8497 30.6319H48.6V29.2069H54.8497C56.0282 29.2069 57.1583 29.6845 57.9901 30.5342L58.2071 30.7559C59.0351 31.6017 59.5 32.747 59.5 33.941V63.2171C59.5 65.2303 58.1899 66.9999 56.2886 67.5548L55.2973 67.8441Z" fill="#F6F6F6"/>
<path fill-rule="evenodd" clip-rule="evenodd" d="M27.6 75.075C31.7926 75.075 35.2 71.6017 35.2 67.3064C35.2 63.0112 31.7926 59.5379 27.6 59.5379C23.4074 59.5379 20 63.0112 20 67.3064C20 71.6017 23.4074 75.075 27.6 75.075ZM27.6 76.5C32.5706 76.5 36.6 72.3839 36.6 67.3064C36.6 62.229 32.5706 58.1129 27.6 58.1129C22.6294 58.1129 18.6 62.229 18.6 67.3064C18.6 72.3839 22.6294 76.5 27.6 76.5Z" fill="#F6F6F6"/>
<path fill-rule="evenodd" clip-rule="evenodd" d="M74.4 75.075C78.5926 75.075 82 71.6017 82 67.3064C82 63.0112 78.5926 59.5379 74.4 59.5379C70.2074 59.5379 66.8 63.0112 66.8 67.3064C66.8 71.6017 70.2074 75.075 74.4 75.075ZM74.4 76.5C79.3706 76.5 83.4 72.3839 83.4 67.3064C83.4 62.229 79.3706 58.1129 74.4 58.1129C69.4294 58.1129 65.4 62.229 65.4 67.3064C65.4 72.3839 69.4294 76.5 74.4 76.5Z" fill="#F6F6F6"/>
<path fill-rule="evenodd" clip-rule="evenodd" d="M36 23.5911C39.5299 23.5911 42.4 20.6667 42.4 17.0484C42.4 13.4301 39.5299 10.5056 36 10.5056C32.4701 10.5056 29.6 13.4301 29.6 17.0484C29.6 20.6667 32.4701 23.5911 36 23.5911ZM36 25.0161C40.3078 25.0161 43.8 21.4488 43.8 17.0484C43.8 12.6479 40.3078 9.08064 36 9.08064C31.6922 9.08064 28.2 12.6479 28.2 17.0484C28.2 21.4488 31.6922 25.0161 36 25.0161Z" fill="#F6F6F6"/>
<path fill-rule="evenodd" clip-rule="evenodd" d="M46.4661 30.2259C49.0986 25.5863 50.8 20.8141 50.8 17.0484C50.8 8.69116 44.1691 1.925 36 1.925C27.8309 1.925 21.2 8.69116 21.2 17.0484C21.2 20.8199 22.9076 25.481 25.5537 30.0541C28.1814 34.5954 31.6313 38.8722 34.8925 41.8501C35.5699 42.4687 36.5416 42.4793 37.2008 41.9094C40.4242 39.1228 43.8498 34.8368 46.4661 30.2259ZM38.1071 42.9955C44.8402 37.1749 52.2 25.3132 52.2 17.0484C52.2 7.90897 44.947 0.5 36 0.5C27.053 0.5 19.8 7.90897 19.8 17.0484C19.8 25.3397 27.2071 36.7466 33.9576 42.9108C35.1393 43.9899 36.8971 44.0415 38.1071 42.9955Z" fill="#F6F6F6"/>
</svg>
