<svg width="76" height="25" viewBox="0 0 76 25" fill="none" xmlns="http://www.w3.org/2000/svg">
<g clip-path="url(#clip0_4119_5669)">
<g clip-path="url(#clip1_4119_5669)">
<path d="M49.5019 0C44.1059 0 39.2834 2.81141 39.2834 8.00453C39.2834 13.9607 47.8359 14.3721 47.8359 17.3647C47.8359 18.6247 46.3996 19.7525 43.9453 19.7525C40.4633 19.7525 37.8608 18.1767 37.8608 18.1767L36.747 23.418C36.747 23.418 39.7452 24.7491 43.7255 24.7491C49.6252 24.7491 54.2681 21.8001 54.2681 16.5175C54.2681 10.2234 45.6799 9.82426 45.6799 7.04726C45.6799 6.06017 46.8591 4.97903 49.3057 4.97903C52.0665 4.97903 54.3183 6.12516 54.3183 6.12516L55.4085 1.06355C55.4085 1.06355 52.9573 0 49.5012 0H49.5019ZM0.130851 0.382297L0 1.14613C0 1.14613 2.27011 1.56359 4.31503 2.397C6.94803 3.35198 7.13518 3.9086 7.5787 5.63506L12.4103 24.3546H18.8874L28.8655 0.382297H22.4036L15.992 16.6811L13.3757 2.86493C13.1361 1.28375 11.9204 0.381532 10.4331 0.381532H0.131612L0.130851 0.382297ZM31.4643 0.382297L26.3954 24.3546H32.5575L37.6082 0.382297H31.4643ZM65.8324 0.382297C64.3467 0.382297 63.5593 1.18206 62.9819 2.57897L53.9539 24.3546H60.4158L61.6657 20.7251H69.5381L70.2981 24.3546H76L71.0261 0.382297H65.8324ZM66.6731 6.85917L68.5887 15.8546H63.4573L66.6738 6.85917H66.6731Z" fill="white"/>
</g>
</g>
<defs>
<clipPath id="clip0_4119_5669">
<rect width="76" height="25" fill="white"/>
</clipPath>
<clipPath id="clip1_4119_5669">
<rect width="76" height="24.7491" fill="white"/>
</clipPath>
</defs>
</svg>
