<svg width="82" height="23" viewBox="0 0 82 23" fill="none" xmlns="http://www.w3.org/2000/svg">
<g clip-path="url(#clip0_4119_5679)">
<g clip-path="url(#clip1_4119_5679)">
<path d="M0.733398 0.533881H8.37556C9.0703 0.533881 11.1545 0.303008 12.0809 3.53522C12.7756 5.61307 13.7019 8.84529 15.0914 13.6936H15.5546C16.944 8.61442 18.102 5.15133 18.5651 3.53522C19.4914 0.303008 21.8072 0.533881 22.7336 0.533881H29.9126V22.6976H22.502V9.53791H22.0388L18.102 22.6976H12.544L8.60714 9.53791H7.9124V22.6976H0.733398M32.9231 0.533881H40.3337V13.6936H41.0284L45.8916 2.84261C46.818 0.764753 48.9022 0.533881 48.9022 0.533881H55.8496V22.6976H48.439V9.53791H47.9759L43.1127 20.3889C42.1863 22.4668 39.8705 22.6976 39.8705 22.6976H32.9231M65.8076 16.0023V22.6976H58.8602V11.154H81.5551C80.6288 13.9245 77.3866 16.0023 73.6813 16.0023" fill="white"/>
<path opacity="0.8" d="M82.0187 9.7681C82.945 5.6124 80.1661 0.533203 74.145 0.533203H58.3975C58.8606 5.38152 63.0291 9.7681 67.4291 9.7681" fill="white"/>
</g>
</g>
<defs>
<clipPath id="clip0_4119_5679">
<rect width="82.0005" height="23" fill="white"/>
</clipPath>
<clipPath id="clip1_4119_5679">
<rect width="81.2671" height="22.3946" fill="white" transform="translate(0.733398 0.302734)"/>
</clipPath>
</defs>
</svg>
