<svg width="91" height="47" viewBox="0 0 91 47" fill="none" xmlns="http://www.w3.org/2000/svg">
<g clip-path="url(#clip0_4125_5407)">
<g clip-path="url(#clip1_4125_5407)">
<path d="M78.6883 13.6306V24.8769H74.6995V16.9879H70.8589V24.8769H66.8701V13.6299H78.6883V13.6306Z" fill="white"/>
<path fill-rule="evenodd" clip-rule="evenodd" d="M58.6777 25.2791C62.2484 25.2791 64.8999 23.0749 64.8999 19.7334C64.8999 16.4992 62.9436 14.3993 59.6741 14.3993C58.1652 14.3993 56.9201 14.934 55.9823 15.8567C56.2062 13.9496 57.808 12.5574 59.5717 12.5574C59.9787 12.5574 63.043 12.5509 63.043 12.5509L64.7758 9.2124C64.7758 9.2124 60.9287 9.30057 59.1403 9.30057C55.054 9.37225 52.2939 13.1117 52.2939 17.6534C52.2939 22.9446 54.9859 25.2791 58.6777 25.2791ZM58.6994 17.3563C60.0251 17.3563 60.9443 18.2334 60.9443 19.733C60.9443 21.0827 60.1276 22.1948 58.6994 22.1978C57.3332 22.1978 56.4141 21.1674 56.4141 19.756C56.4141 18.256 57.3332 17.3563 58.6994 17.3563Z" fill="white"/>
<path d="M49.0476 21.112C49.0476 21.112 48.1056 21.6586 46.6988 21.7621C45.0813 21.8104 43.6402 20.7819 43.6402 18.9546C43.6402 17.1721 44.9119 16.1505 46.658 16.1505C47.7287 16.1505 49.1451 16.8976 49.1451 16.8976C49.1451 16.8976 50.1815 14.9828 50.7184 14.0253C49.7353 13.2751 48.4259 12.8638 46.9028 12.8638C43.0591 12.8638 40.082 15.3869 40.082 18.9319C40.082 22.5222 42.8802 24.9867 46.9028 24.9123C48.0272 24.8702 49.5784 24.4726 50.5238 23.8612L49.0476 21.112Z" fill="white"/>
<path d="M0 10.5127L5.5331 20.4698V26.5433L0.0064728 36.4808L0 10.5127Z" fill="white"/>
<path d="M21.2451 16.8465L26.4298 13.6472L37.0407 13.6372L21.2451 23.3792V16.8465Z" fill="white"/>
<path d="M21.216 10.454L21.2453 23.6369L15.6992 20.206V0.5L21.216 10.454Z" fill="white"/>
<path d="M37.0408 13.6372L26.4296 13.6472L21.216 10.454L15.6992 0.5L37.0408 13.6372Z" fill="white"/>
<path d="M21.2453 36.536V30.1401L15.6992 26.7744L15.7023 46.5L21.2453 36.536Z" fill="white"/>
<path d="M26.4167 33.3659L5.53272 20.4698L0 10.5127L37.018 33.3528L26.4167 33.3659Z" fill="white"/>
<path d="M15.7021 46.5002L21.2444 36.5362L26.4162 33.3661L37.0175 33.353L15.7021 46.5002Z" fill="white"/>
<path d="M0.00683594 36.4806L15.7445 26.7746L10.4536 23.5063L5.53347 26.5431L0.00683594 36.4806Z" fill="white"/>
<path d="M43.6418 32.4457C43.52 32.6021 43.3597 32.7201 43.1674 32.7999C42.9701 32.8807 42.759 32.9219 42.546 32.921C42.3342 32.9239 42.1236 32.8883 41.9243 32.816C41.7452 32.7505 41.5816 32.6484 41.4437 32.5162C41.3076 32.3837 41.2007 32.2239 41.13 32.047C41.0535 31.8533 41.0153 31.6463 41.0177 31.4379C41.0177 31.2309 41.0531 31.0392 41.1266 30.8575C41.197 30.6754 41.2994 30.5194 41.4277 30.3883C41.5561 30.2545 41.7099 30.1526 41.8827 30.0728C42.059 29.9962 42.2513 29.9548 42.4626 29.9548C42.6903 29.9548 42.9016 29.9835 43.0939 30.0406C43.2862 30.0981 43.4495 30.194 43.584 30.3281L43.3502 30.7268C43.2371 30.6236 43.1039 30.5453 42.9591 30.4968C42.8215 30.4521 42.6777 30.4296 42.5331 30.4301C42.4051 30.4301 42.2833 30.4554 42.1649 30.5033C42.0482 30.5506 41.9416 30.62 41.8508 30.7076C41.758 30.7978 41.6848 30.9064 41.636 31.0266C41.5816 31.1508 41.5561 31.288 41.5561 31.4409C41.5561 31.5973 41.5846 31.7376 41.6391 31.8588C41.6939 31.9834 41.7674 32.0888 41.8603 32.1777C41.9532 32.2674 42.0621 32.3341 42.187 32.379C42.3122 32.4269 42.4436 32.4491 42.5845 32.4491C42.7573 32.4491 42.9146 32.4138 43.049 32.3468C43.1822 32.282 43.3018 32.1922 43.4016 32.0823L43.6418 32.4457ZM44.3017 32.8539V30.0153H44.8081V32.1302L46.4548 30.0153H46.9612V32.8543H46.4548V30.7394L44.8081 32.8543L44.3017 32.8539ZM50.3157 32.4457C50.1911 32.6034 50.0277 32.7255 49.8416 32.7999C49.6442 32.8807 49.433 32.9218 49.2199 32.921C49.0081 32.9239 48.7977 32.8883 48.5985 32.816C48.4194 32.7505 48.2556 32.6485 48.1176 32.5162C47.9814 32.3837 47.8745 32.2239 47.8038 32.047C47.7273 31.8533 47.6892 31.6463 47.6915 31.4379C47.6915 31.2309 47.7269 31.0392 47.8004 30.8575C47.8712 30.6754 47.9737 30.5194 48.1016 30.3883C48.2299 30.2545 48.3837 30.1526 48.5566 30.0728C48.7392 29.9919 48.937 29.9516 49.1365 29.9548C49.3642 29.9548 49.5755 29.9835 49.7678 30.0406C49.96 30.0981 50.1234 30.194 50.2582 30.3281L50.024 30.7268C49.9111 30.6236 49.7781 30.5452 49.6334 30.4968C49.4957 30.4522 49.3519 30.4297 49.2073 30.4301C48.9528 30.4309 48.7083 30.5303 48.5246 30.7076C48.4326 30.7984 48.3596 30.9069 48.3099 31.0266C48.2554 31.1508 48.2299 31.288 48.2299 31.4409C48.2299 31.5973 48.2588 31.7376 48.3133 31.8588C48.3677 31.9834 48.4412 32.0888 48.5341 32.1777C48.627 32.2674 48.7363 32.3341 48.8612 32.379C48.9861 32.4234 49.1174 32.4491 49.2583 32.4491C49.4316 32.4491 49.5854 32.4138 49.7228 32.3468C49.856 32.282 49.9757 32.1922 50.0754 32.0823L50.3157 32.4457ZM50.5753 30.0153H53.1736V30.5194H52.1292V32.8539H51.6228V30.5194H50.5784V30.0153H50.5753Z" fill="white"/>
<path fill-rule="evenodd" clip-rule="evenodd" d="M55.5384 32.8255C55.7306 32.765 55.894 32.6722 56.0349 32.5449L55.881 32.1493C55.7881 32.2325 55.6633 32.3027 55.5129 32.3602C55.3621 32.4177 55.1923 32.446 55.0065 32.446C54.7277 32.446 54.497 32.3728 54.3142 32.2229C54.1319 32.0727 54.0325 31.8626 54.01 31.5943H56.2016C56.2241 31.4954 56.2336 31.3838 56.2336 31.2531C56.2336 31.0584 56.1982 30.8832 56.1278 30.7237C56.0622 30.5689 55.9664 30.4289 55.846 30.312C55.724 30.1963 55.5801 30.1063 55.423 30.0475C55.2585 29.9833 55.0835 29.9507 54.9071 29.9517C54.6699 29.9517 54.4616 29.9931 54.2792 30.0697C54.1068 30.1428 53.9508 30.2502 53.8208 30.3856C53.6945 30.5203 53.5975 30.6799 53.536 30.8544C53.4683 31.0403 53.4346 31.2369 53.4366 31.4348C53.4366 31.6583 53.4751 31.8622 53.5455 32.0443C53.614 32.2207 53.7189 32.3805 53.8532 32.5131C53.9845 32.6434 54.1444 32.7427 54.3337 32.8129C54.5363 32.8852 54.75 32.9208 54.965 32.9179C55.1596 32.9167 55.353 32.8853 55.5384 32.8255ZM54.2568 30.6405C54.4136 30.4972 54.6219 30.427 54.8846 30.427C55.1313 30.427 55.3301 30.4941 55.4744 30.6283C55.6187 30.762 55.6952 30.9472 55.7082 31.1829H53.978C54.0026 30.9742 54.1016 30.7812 54.2568 30.6405Z" fill="white"/>
<path d="M56.9219 30.0156H57.3833L58.4792 31.4225L59.5171 30.0156H59.9656V32.8546H59.4596V30.7846L58.4727 32.1017H58.4533L57.4283 30.7842V32.8542H56.9219V30.0156Z" fill="white"/>
<path fill-rule="evenodd" clip-rule="evenodd" d="M61.3434 30.0252C61.1897 30.0656 61.0429 30.1289 60.9078 30.213L61.0422 30.6155C61.1576 30.558 61.2729 30.5101 61.3883 30.4687C61.5037 30.4269 61.651 30.4078 61.8273 30.4078C61.9682 30.4078 62.0805 30.4304 62.167 30.4749C62.2534 30.5163 62.3174 30.5803 62.3623 30.6569C62.4072 30.7336 62.4361 30.8291 62.4521 30.9406C62.4681 31.0522 62.4746 31.1733 62.4746 31.3044C62.371 31.2317 62.2529 31.1826 62.1285 31.1606C62.0082 31.1366 61.886 31.1237 61.7634 31.1223C61.6126 31.1223 61.4717 31.1449 61.3369 31.1829C61.2025 31.2212 61.0871 31.2787 60.9942 31.3554C60.8994 31.4319 60.8228 31.5288 60.77 31.639C60.7135 31.7597 60.685 31.8917 60.6866 32.0251C60.6866 32.3026 60.7669 32.5196 60.9268 32.6729C61.0871 32.8258 61.2985 32.9021 61.5612 32.9021C61.7984 32.9021 61.9876 32.8607 62.1315 32.7779C62.2758 32.6947 62.3912 32.5993 62.4746 32.4908V32.8577H62.9486V31.1162C62.9486 30.7459 62.8687 30.4591 62.7053 30.2579C62.545 30.057 62.2599 29.9551 61.8563 29.9551C61.6765 29.9551 61.5067 29.9804 61.3434 30.0252ZM62.1898 32.3252C62.0744 32.408 61.9237 32.446 61.7378 32.446C61.5745 32.446 61.4462 32.4046 61.3567 32.3248C61.2669 32.242 61.2219 32.1335 61.2219 31.9994C61.2219 31.92 61.2379 31.8529 61.2733 31.7924C61.3087 31.7318 61.3567 31.6839 61.4112 31.6456C61.4707 31.6055 61.5368 31.5763 61.6065 31.5593C61.6804 31.5401 61.7538 31.5306 61.8307 31.5306C62.0809 31.5306 62.2953 31.5911 62.4716 31.7188V32.0791C62.3885 32.1728 62.2938 32.2558 62.1898 32.3252ZM67.4187 29.017C67.5211 28.9695 67.6171 28.8898 67.7069 28.7717L67.4312 28.373C67.3608 28.4689 67.2808 28.5356 67.191 28.5708C67.0958 28.6083 66.997 28.6361 66.8963 28.6536L66.8003 28.6709C66.717 28.6855 66.6275 28.7016 66.5311 28.7177C66.3767 28.7464 66.2261 28.7935 66.0826 28.858C65.8549 28.9569 65.6725 29.0906 65.5347 29.2597C65.3969 29.4287 65.288 29.62 65.2141 29.8309C65.1393 30.0444 65.0888 30.2659 65.0637 30.491C65.0378 30.721 65.0253 30.9406 65.0253 31.1511C65.0253 31.4225 65.0603 31.6678 65.1307 31.8878C65.2016 32.1082 65.3006 32.293 65.4319 32.4429C65.5633 32.5962 65.7205 32.7112 65.9063 32.794C66.0921 32.8768 66.3004 32.9182 66.5342 32.9182C66.7489 32.9182 66.9477 32.8768 67.127 32.8002C67.2999 32.7265 67.4567 32.6193 67.5885 32.4847C67.7164 32.3536 67.8192 32.1972 67.8897 32.022C67.9632 31.8464 67.9986 31.6582 67.9986 31.4604C67.9986 31.2469 67.9666 31.0525 67.9057 30.88C67.8496 30.7156 67.7601 30.5647 67.6429 30.4369C67.5256 30.3113 67.3822 30.2131 67.223 30.1494C67.0476 30.0799 66.8605 30.0452 66.672 30.0474C66.5502 30.0474 66.4318 30.0635 66.3164 30.0954C66.2042 30.1272 66.0964 30.1733 65.9958 30.2326C65.8981 30.2889 65.8087 30.3586 65.73 30.4396C65.6531 30.5197 65.5892 30.609 65.5442 30.711H65.5313C65.5412 30.5803 65.5572 30.4465 65.5857 30.3093C65.6147 30.172 65.6562 30.0409 65.711 29.9167C65.7655 29.7925 65.8359 29.6806 65.9223 29.5786C66.015 29.4757 66.1286 29.3941 66.2555 29.3394C66.395 29.2725 66.5426 29.2243 66.6945 29.1961L66.795 29.1777C66.8951 29.1593 66.9907 29.1416 67.0821 29.1225C67.2039 29.0972 67.3159 29.0646 67.4187 29.017ZM65.6371 31.7445C65.5876 31.5834 65.5638 31.4155 65.5667 31.2469C65.5882 31.1502 65.6273 31.0583 65.6821 30.9759C65.7365 30.8896 65.807 30.8133 65.8903 30.7459C66.0785 30.5975 66.3111 30.5177 66.5502 30.5197C66.8483 30.5197 67.0726 30.6121 67.2294 30.7942C67.3867 30.9789 67.4636 31.2086 67.4636 31.4861C67.4636 31.6233 67.4377 31.7479 67.3932 31.8625C67.3499 31.9756 67.2845 32.0787 67.2008 32.1659C67.1171 32.253 67.017 32.3223 66.9062 32.3697C66.7908 32.4207 66.6655 32.4463 66.5247 32.4463C66.3838 32.4463 66.2555 32.4176 66.1371 32.3601C66.0194 32.3038 65.9154 32.2221 65.8325 32.1209C65.7456 32.0081 65.6795 31.8806 65.6371 31.7445ZM71.8819 30.0156H71.3755V32.8546H71.8819V30.0156ZM68.7289 30.0156H69.2353V30.8674H69.7032C69.924 30.8674 70.1034 30.8961 70.2477 30.9502C70.392 31.0046 70.5074 31.0778 70.5938 31.1672C70.6802 31.2565 70.7411 31.3619 70.7765 31.4796C70.8116 31.5976 70.831 31.7188 70.831 31.8464C70.831 31.9741 70.8116 32.0956 70.7701 32.2167C70.7316 32.3379 70.6642 32.4429 70.5744 32.5387C70.4849 32.6346 70.363 32.7112 70.2092 32.7687C70.0554 32.8258 69.8696 32.8577 69.6453 32.8577H68.7258V30.0156H68.7289ZM69.2353 31.3423V32.3823H69.6038C69.857 32.3823 70.0364 32.3379 70.1388 32.2482C70.2416 32.1588 70.2926 32.0316 70.2926 31.8625C70.2926 31.69 70.2382 31.5597 70.1357 31.47C70.0299 31.3807 69.8536 31.3358 69.6103 31.3358H69.2353V31.3423Z" fill="white"/>
<path d="M75.2297 32.4457C75.1079 32.6021 74.9476 32.7201 74.7553 32.7999C74.558 32.8807 74.3469 32.9218 74.1339 32.921C73.9221 32.9239 73.7114 32.8883 73.5121 32.816C73.3331 32.7506 73.1695 32.6485 73.0316 32.5162C72.8955 32.3836 72.7885 32.2238 72.7175 32.047C72.6413 31.8532 72.6033 31.6463 72.6056 31.4379C72.6056 31.2309 72.6406 31.0392 72.7145 30.8575C72.7849 30.6754 72.8873 30.5194 73.0156 30.3883C73.144 30.2545 73.2974 30.1526 73.4706 30.0728C73.6532 29.9918 73.851 29.9516 74.0505 29.9548C74.2778 29.9548 74.4895 29.9835 74.6818 30.0406C74.8741 30.0981 75.0374 30.194 75.1718 30.3281L74.9381 30.7268C74.825 30.6236 74.6918 30.5453 74.547 30.4968C74.4094 30.4522 74.2656 30.4296 74.121 30.4301C73.993 30.4301 73.8712 30.4554 73.7524 30.5033C73.6358 30.5506 73.5293 30.62 73.4387 30.7076C73.3465 30.7983 73.2735 30.9068 73.2239 31.0266C73.1695 31.1508 73.144 31.288 73.144 31.4409C73.144 31.5973 73.1725 31.7377 73.227 31.8588C73.2814 31.9834 73.3553 32.0888 73.4482 32.1777C73.5411 32.2674 73.65 32.3341 73.7749 32.379C73.9001 32.4234 74.0315 32.4491 74.1724 32.4491C74.3452 32.4491 74.4991 32.4138 74.6369 32.3468C74.7701 32.282 74.8897 32.1922 74.9895 32.0823L75.2297 32.4457ZM75.489 30.0153H78.0877V30.5194H77.0429V32.8539H76.5368V30.5194H75.4924V30.0153H75.489Z" fill="white"/>
<path fill-rule="evenodd" clip-rule="evenodd" d="M79.1451 30.0159H78.6387V34.1175H79.1451V32.7237C79.2475 32.7908 79.3693 32.8388 79.5102 32.8706C79.6511 32.9024 79.7984 32.9181 79.9492 32.9181C80.1735 32.9181 80.3753 32.8767 80.558 32.8004C80.7333 32.7249 80.8922 32.6155 81.0256 32.4784C81.157 32.3408 81.2564 32.1813 81.3268 31.9931C81.3972 31.8053 81.4326 31.604 81.4326 31.3905C81.4326 31.1797 81.4007 30.9853 81.3397 30.8098C81.2824 30.643 81.1931 30.4892 81.077 30.3571C80.9631 30.2281 80.8217 30.1267 80.6635 30.0604C80.4906 29.9855 80.3038 29.9485 80.1156 29.9519C79.9172 29.9519 79.7314 29.9902 79.5551 30.0669C79.3789 30.1435 79.241 30.2355 79.1451 30.3505V30.0159ZM79.4977 30.5422C79.642 30.4655 79.7988 30.4272 79.9686 30.4272C80.116 30.4272 80.2474 30.4494 80.3661 30.4973C80.4815 30.5453 80.5775 30.6123 80.6578 30.7017C80.7378 30.791 80.7987 30.8933 80.8371 31.0141C80.8786 31.1352 80.8981 31.2663 80.8981 31.4097C80.8981 31.563 80.8722 31.6999 80.8276 31.8275C80.7856 31.9485 80.719 32.0594 80.6319 32.153C80.5445 32.2454 80.4386 32.3182 80.3212 32.3665C80.1904 32.4217 80.0496 32.4488 79.9077 32.4462C79.7703 32.4462 79.642 32.4305 79.5201 32.3987C79.3867 32.3621 79.2602 32.3039 79.1455 32.2262V30.8193C79.2349 30.7112 79.3537 30.6189 79.4977 30.5422ZM85.3159 30.0155H84.8095V32.8545H85.3159V30.0155ZM82.1599 30.0155H82.6663V30.8673H83.1338C83.3551 30.8673 83.5344 30.896 83.6787 30.9501C83.823 31.0045 83.9384 31.0777 84.0248 31.167C84.1112 31.2564 84.1722 31.3618 84.2072 31.4794C84.2426 31.5975 84.2616 31.7186 84.2616 31.8463C84.2616 31.9739 84.2426 32.0955 84.2011 32.2166C84.1626 32.3377 84.0952 32.4428 84.0054 32.5386C83.9159 32.6344 83.7941 32.7111 83.6402 32.7686C83.4864 32.8257 83.3006 32.8575 83.0763 32.8575H82.1568V30.0155H82.1599ZM82.6697 31.3422V32.3822H83.0383C83.2911 32.3822 83.4708 32.3377 83.5732 32.248C83.6757 32.1587 83.7271 32.0314 83.7271 31.8624C83.7271 31.6899 83.6726 31.5596 83.5702 31.4699C83.4643 31.3806 83.2881 31.3357 83.0447 31.3357H82.6697V31.3422Z" fill="white"/>
<path d="M87.7447 31.3841L88.8276 32.8546H88.2062L87.3697 31.7061L86.5206 32.8546H85.9312L87.0076 31.4094L85.9952 30.0156H86.617L87.3891 31.0874L88.1739 30.0156H88.7636L87.7447 31.3841ZM43.2663 36.3632H41.7125V38.7299H41.2061V35.8914H43.7723V38.7299H43.2663V36.3632ZM46.6463 36.3951H45.6468L45.6144 36.8735C45.5794 37.2786 45.5314 37.6041 45.464 37.8525C45.3966 38.1017 45.3132 38.2929 45.2173 38.4267C45.1213 38.5609 45.009 38.6533 44.8807 38.6981C44.7483 38.7464 44.6084 38.7702 44.4676 38.7683L44.4291 38.2768C44.4836 38.2799 44.5475 38.2673 44.618 38.2354C44.6888 38.2036 44.7592 38.1335 44.8263 38.0284C44.8937 37.9196 44.9546 37.7666 45.009 37.5688C45.0635 37.368 45.0989 37.1065 45.1179 36.7776L45.1693 35.894H47.1527V38.733H46.6463V36.3951Z" fill="white"/>
<path fill-rule="evenodd" clip-rule="evenodd" d="M48.5182 35.8978C48.3545 35.9423 48.2071 36.0059 48.0822 36.0856L48.217 36.4877C48.3324 36.4302 48.4478 36.3823 48.5627 36.3409C48.6781 36.2995 48.8258 36.2804 49.0018 36.2804C49.143 36.2804 49.255 36.3026 49.3414 36.3471C49.4282 36.3888 49.4922 36.4525 49.5371 36.5291C49.5816 36.6058 49.6106 36.7016 49.6266 36.8128C49.6426 36.9247 49.649 37.0459 49.649 37.1766C49.5454 37.104 49.4273 37.0551 49.3029 37.0332C49.1827 37.0091 49.0604 36.9963 48.9378 36.9949C48.7874 36.9949 48.6461 37.0171 48.5117 37.0555C48.3769 37.0938 48.2616 37.1513 48.1687 37.228C48.0738 37.3045 47.9972 37.4014 47.9444 37.5116C47.8881 37.6323 47.8597 37.7643 47.8614 37.8976C47.8614 38.1748 47.9414 38.3921 48.1017 38.5451C48.2616 38.698 48.4733 38.7747 48.736 38.7747C48.9732 38.7747 49.162 38.7333 49.3064 38.6501C49.4503 38.5673 49.5656 38.4715 49.649 38.363V38.7299H50.1235V36.9884C50.1235 36.6185 50.0431 36.3313 49.8798 36.1305C49.7195 35.9292 49.4343 35.8276 49.0307 35.8276C48.8575 35.8278 48.6852 35.8516 48.5182 35.8978ZM49.3673 38.197C49.2523 38.2802 49.1015 38.3185 48.9157 38.3185C48.7489 38.3185 48.624 38.2771 48.5346 38.197C48.4447 38.1142 48.3998 38.0057 48.3998 37.872C48.3998 37.7922 48.4158 37.7251 48.4512 37.6646C48.4862 37.604 48.5346 37.5561 48.589 37.5178C48.6435 37.4794 48.7105 37.4507 48.7843 37.4315C48.8576 37.4125 48.933 37.4029 49.0086 37.4031C49.2584 37.4031 49.4731 37.4637 49.6494 37.591V37.9513C49.5662 38.045 49.4714 38.1276 49.3673 38.197Z" fill="white"/>
<path d="M50.6191 35.8911H53.2178V36.3948H52.173V38.7297H51.667V36.3952H50.6226V35.8911H50.6191Z" fill="white"/>
<path fill-rule="evenodd" clip-rule="evenodd" d="M55.5827 38.7011C55.775 38.6405 55.9383 38.5477 56.0792 38.4205L55.9254 38.0249C55.8325 38.1081 55.7076 38.1782 55.5568 38.2357C55.4064 38.2932 55.2366 38.3216 55.0508 38.3216C54.7721 38.3216 54.5413 38.2484 54.3586 38.0985C54.1758 37.9486 54.0768 37.7381 54.0543 37.4698H56.2459C56.268 37.3713 56.2779 37.2594 56.2779 37.1286C56.2779 36.9343 56.2425 36.7587 56.1721 36.5993C56.1065 36.4444 56.0105 36.3045 55.8899 36.1879C55.7682 36.072 55.6244 35.9819 55.4673 35.9231C55.3028 35.8588 55.1278 35.8263 54.9514 35.8272C54.7142 35.8272 54.5059 35.8686 54.3235 35.9453C54.151 36.0181 53.995 36.1256 53.8651 36.2612C53.7389 36.3959 53.6418 36.5555 53.5799 36.73C53.5124 36.9158 53.4787 37.1124 53.4805 37.3103C53.4805 37.5338 53.519 37.7378 53.5894 37.9198C53.6603 38.1015 53.7657 38.2579 53.8971 38.3887C54.0284 38.5194 54.1887 38.6183 54.378 38.6884C54.5804 38.7609 54.794 38.7966 55.0089 38.7938C55.1981 38.7938 55.3904 38.7616 55.5827 38.7011ZM54.298 36.513C54.4549 36.3696 54.6632 36.2995 54.9259 36.2995C55.176 36.2995 55.3714 36.3696 55.5157 36.5004C55.6596 36.6345 55.7365 36.8193 55.7494 37.0554H54.0193C54.0437 36.8466 54.1428 36.6538 54.298 36.513ZM56.5247 35.8912H57.1655L58.1425 37.2597L57.0981 38.7298H56.4767L57.5721 37.2594L56.5247 35.8912ZM58.2674 35.8912H58.7738V38.7298H58.2674V35.8912ZM60.5839 38.7298L59.469 37.2594L60.5104 35.8909H59.8821L58.8987 37.2594L59.956 38.7298H60.5839ZM62.8973 38.7011C63.0896 38.6405 63.2529 38.5477 63.3938 38.4205L63.24 38.0249C63.1471 38.1081 63.0222 38.1782 62.8718 38.2357C62.721 38.2932 62.5512 38.3216 62.3654 38.3216C62.0867 38.3216 61.856 38.2484 61.6732 38.0985C61.4908 37.9486 61.3914 37.7381 61.369 37.4698H63.5606C63.5831 37.3713 63.5926 37.2594 63.5926 37.1286C63.5926 36.9343 63.5575 36.7587 63.4867 36.5993C63.4211 36.4445 63.3253 36.3047 63.205 36.1879C63.083 36.072 62.9392 35.9819 62.782 35.9231C62.6175 35.8588 62.4425 35.8263 62.266 35.8272C62.0292 35.8272 61.8209 35.8686 61.6382 35.9453C61.4658 36.0182 61.31 36.1257 61.1801 36.2612C61.0536 36.3957 60.9565 36.5554 60.8949 36.73C60.8273 36.9158 60.7936 37.1124 60.7956 37.3103C60.7956 37.5338 60.834 37.7378 60.9045 37.9198C60.9749 38.1015 61.0807 38.2579 61.2121 38.3887C61.3435 38.5194 61.5034 38.6183 61.6926 38.6884C61.8952 38.7609 62.1089 38.7966 62.3239 38.7938C62.5186 38.7924 62.712 38.7611 62.8973 38.7011ZM61.6127 36.513C61.7699 36.3696 61.9782 36.2995 62.2409 36.2995C62.4876 36.2995 62.686 36.3696 62.8303 36.5004C62.9746 36.6345 63.0515 36.8193 63.0641 37.0554H61.334C61.3584 36.8466 61.4574 36.6538 61.6127 36.513ZM65.6467 34.9375C65.3486 34.9375 65.1853 34.7715 65.1598 34.4399H64.6823C64.6823 34.5672 64.7048 34.6822 64.7463 34.7907C64.7881 34.8992 64.8491 34.9916 64.929 35.0682C65.009 35.1449 65.1118 35.2055 65.2302 35.253C65.3486 35.3009 65.4864 35.3231 65.6433 35.3231C65.7876 35.3231 65.9159 35.3009 66.0313 35.253C66.1467 35.2085 66.2426 35.1449 66.326 35.0682C66.406 34.9916 66.4703 34.8992 66.5149 34.7907C66.5598 34.6822 66.5823 34.5672 66.5823 34.4399H66.1082C66.0858 34.7715 65.9285 34.9375 65.6467 34.9375ZM64.2783 35.8909V38.7298H64.7847L66.4315 36.615V38.7298H66.9379V35.8909H66.4315L64.7847 38.0057V35.8909H64.2783Z" fill="white"/>
</g>
</g>
<defs>
<clipPath id="clip0_4125_5407">
<rect width="91" height="47" fill="white"/>
</clipPath>
<clipPath id="clip1_4125_5407">
<rect width="91" height="46" fill="white" transform="translate(0 0.5)"/>
</clipPath>
</defs>
</svg>
