<svg width="19" height="18" viewBox="0 0 19 18" fill="none" xmlns="http://www.w3.org/2000/svg">
<path d="M6.53329 17.408C7.23934 17.408 7.8117 16.8203 7.8117 16.0955C7.8117 15.3706 7.23934 14.783 6.53329 14.783C5.82725 14.783 5.25488 15.3706 5.25488 16.0955C5.25488 16.8203 5.82725 17.408 6.53329 17.408Z" fill="white"/>
<path d="M14.8429 17.408C15.5489 17.408 16.1213 16.8203 16.1213 16.0955C16.1213 15.3706 15.5489 14.783 14.8429 14.783C14.1368 14.783 13.5645 15.3706 13.5645 16.0955C13.5645 16.8203 14.1368 17.408 14.8429 17.408Z" fill="white"/>
<path d="M3.5207 4.28125H17.8571L15.7479 11.8606C15.6715 12.1348 15.5103 12.3761 15.2885 12.5478C15.0667 12.7196 14.7965 12.8125 14.5186 12.8125H6.85919C6.58138 12.8125 6.31113 12.7196 6.08934 12.5478C5.86755 12.3761 5.70629 12.1348 5.62997 11.8606L2.74001 1.47596C2.70185 1.33884 2.62122 1.21821 2.51032 1.13233C2.39943 1.04645 2.2643 1 2.1254 1H0.78125" stroke="white" stroke-width="2" stroke-linecap="round" stroke-linejoin="round"/>
</svg>
