<svg width="16" height="16" viewBox="0 0 16 16" fill="none" xmlns="http://www.w3.org/2000/svg">
<path d="M12.1478 14.8022C12.6933 14.8022 13.1355 14.36 13.1355 13.8146C13.1355 13.2691 12.6933 12.8269 12.1478 12.8269C11.6023 12.8269 11.1602 13.2691 11.1602 13.8146C11.1602 14.36 11.6023 14.8022 12.1478 14.8022Z" fill="white"/>
<path d="M5.8275 14.8022C6.37296 14.8022 6.81515 14.36 6.81515 13.8146C6.81515 13.2691 6.37296 12.8269 5.8275 12.8269C5.28203 12.8269 4.83984 13.2691 4.83984 13.8146C4.83984 14.36 5.28203 14.8022 5.8275 14.8022Z" fill="white"/>
<path d="M3.17031 3.8282H15.1109L13.3541 10.4188C13.2905 10.6573 13.1562 10.8671 12.9715 11.0164C12.7868 11.1658 12.5617 11.2466 12.3303 11.2466H5.95089C5.7195 11.2466 5.49442 11.1658 5.30969 11.0164C5.12496 10.8671 4.99066 10.6573 4.92709 10.4188L2.52009 1.38885C2.4883 1.26962 2.42115 1.16472 2.32879 1.09005C2.23642 1.01537 2.12388 0.974976 2.00819 0.974976H0.888672" stroke="white" stroke-width="1.5" stroke-linecap="round" stroke-linejoin="round"/>
</svg>
