<svg width="16" height="16" viewBox="0 0 16 16" fill="none" xmlns="http://www.w3.org/2000/svg">
<g clip-path="url(#clip0_5964_1568)">
<path d="M9.80078 2.2398C9.80078 1.73576 9.80078 1.48373 9.89888 1.29121C9.98516 1.12187 10.1228 0.984185 10.2922 0.897899C10.4847 0.799805 10.7367 0.799805 11.2408 0.799805H13.7608C14.2648 0.799805 14.5169 0.799805 14.7094 0.897899C14.8787 0.984185 15.0164 1.12187 15.1027 1.29121C15.2008 1.48373 15.2008 1.73576 15.2008 2.2398V4.7598C15.2008 5.26385 15.2008 5.51588 15.1027 5.7084C15.0164 5.87774 14.8787 6.01542 14.7094 6.10171C14.5169 6.1998 14.2648 6.1998 13.7608 6.1998H11.2408C10.7367 6.1998 10.4847 6.1998 10.2922 6.10171C10.1228 6.01542 9.98516 5.87774 9.89888 5.7084C9.80078 5.51588 9.80078 5.26385 9.80078 4.7598V2.2398Z" stroke="white" stroke-width="1.5" stroke-linecap="round" stroke-linejoin="round"/>
<path d="M0.800781 2.2398C0.800781 1.73576 0.800781 1.48373 0.898875 1.29121C0.985161 1.12187 1.12284 0.984185 1.29219 0.897899C1.48471 0.799805 1.73673 0.799805 2.24078 0.799805H4.76078C5.26483 0.799805 5.51685 0.799805 5.70937 0.897899C5.87872 0.984185 6.0164 1.12187 6.10269 1.29121C6.20078 1.48373 6.20078 1.73576 6.20078 2.2398V4.7598C6.20078 5.26385 6.20078 5.51588 6.10269 5.7084C6.0164 5.87774 5.87872 6.01542 5.70937 6.10171C5.51685 6.1998 5.26483 6.1998 4.76078 6.1998H2.24078C1.73673 6.1998 1.48471 6.1998 1.29219 6.10171C1.12284 6.01542 0.985161 5.87774 0.898875 5.7084C0.800781 5.51588 0.800781 5.26385 0.800781 4.7598V2.2398Z" stroke="white" stroke-width="1.5" stroke-linecap="round" stroke-linejoin="round"/>
<path d="M0.800781 11.2398C0.800781 10.7358 0.800781 10.4837 0.898875 10.2912C0.985161 10.1219 1.12284 9.98419 1.29219 9.8979C1.48471 9.79981 1.73673 9.79981 2.24078 9.79981H4.76078C5.26483 9.79981 5.51685 9.79981 5.70937 9.8979C5.87872 9.98419 6.0164 10.1219 6.10269 10.2912C6.20078 10.4837 6.20078 10.7358 6.20078 11.2398V13.7598C6.20078 14.2639 6.20078 14.5159 6.10269 14.7084C6.0164 14.8777 5.87872 15.0154 5.70937 15.1017C5.51685 15.1998 5.26483 15.1998 4.76078 15.1998H2.24078C1.73673 15.1998 1.48471 15.1998 1.29219 15.1017C1.12284 15.0154 0.985161 14.8777 0.898875 14.7084C0.800781 14.5159 0.800781 14.2639 0.800781 13.7598V11.2398Z" stroke="white" stroke-width="1.5" stroke-linecap="round" stroke-linejoin="round"/>
<path d="M9.80078 11.2398C9.80078 10.7358 9.80078 10.4837 9.89888 10.2912C9.98516 10.1219 10.1228 9.98419 10.2922 9.8979C10.4847 9.79981 10.7367 9.79981 11.2408 9.79981H13.7608C14.2648 9.79981 14.5169 9.79981 14.7094 9.8979C14.8787 9.98419 15.0164 10.1219 15.1027 10.2912C15.2008 10.4837 15.2008 10.7358 15.2008 11.2398V13.7598C15.2008 14.2639 15.2008 14.5159 15.1027 14.7084C15.0164 14.8777 14.8787 15.0154 14.7094 15.1017C14.5169 15.1998 14.2648 15.1998 13.7608 15.1998H11.2408C10.7367 15.1998 10.4847 15.1998 10.2922 15.1017C10.1228 15.0154 9.98516 14.8777 9.89888 14.7084C9.80078 14.5159 9.80078 14.2639 9.80078 13.7598V11.2398Z" stroke="white" stroke-width="1.5" stroke-linecap="round" stroke-linejoin="round"/>
</g>
<defs>
<clipPath id="clip0_5964_1568">
<rect width="16" height="16" fill="white"/>
</clipPath>
</defs>
</svg>
