<?xml version="1.0" encoding="utf-8"?><svg xmlns="http://www.w3.org/2000/svg" xmlns:xlink="http://www.w3.org/1999/xlink"><symbol fill="none" viewBox="0 0 19 18" id="basket" xmlns="http://www.w3.org/2000/svg"><path d="M6.533 17.408c.706 0 1.279-.588 1.279-1.313 0-.724-.573-1.312-1.279-1.312s-1.278.588-1.278 1.313c0 .724.572 1.312 1.278 1.312ZM14.843 17.408c.706 0 1.278-.588 1.278-1.313 0-.724-.572-1.312-1.278-1.312-.706 0-1.278.588-1.278 1.313 0 .724.572 1.312 1.278 1.312Z" fill="#fff"/><path d="M3.52 4.281h14.337l-2.11 7.58a1.314 1.314 0 0 1-.458.687 1.257 1.257 0 0 1-.77.264h-7.66c-.278 0-.548-.092-.77-.264a1.314 1.314 0 0 1-.459-.687L2.74 1.476a.657.657 0 0 0-.23-.344A.628.628 0 0 0 2.125 1H.781" stroke="#fff" stroke-width="2" stroke-linecap="round" stroke-linejoin="round"/></symbol><symbol fill="none" viewBox="0 0 20 20" id="feedback" xmlns="http://www.w3.org/2000/svg"><g clip-path="url(#ba)"><path d="M19 3 1 9l6.23 2M19 3 7.23 11M19 3l-5.539 14-6.23-6" stroke="#fff" stroke-width="2" stroke-linecap="round" stroke-linejoin="round"/></g><defs><clipPath id="ba"><path fill="#fff" d="M0 0h20v20H0z"/></clipPath></defs></symbol><symbol fill="none" viewBox="0 0 149 36" id="logo" xmlns="http://www.w3.org/2000/svg"><g clip-path="url(#ca)" fill="#fff"><path fill-rule="evenodd" clip-rule="evenodd" d="M32.05 13.44 19.618 1.207a3.85 3.85 0 0 0-5.43 0L1.754 13.44a4.09 4.09 0 0 0-1.211 2.915v15.14c0 2.228 1.758 4.036 3.927 4.036h24.866c2.168 0 3.926-1.807 3.926-4.037v-15.14a4.09 4.09 0 0 0-1.21-2.915h-.002ZM7.233 19.878c6.053 0 10.964-4.478 11.003-10.014v7.796c0 1.225 1.084 2.218 2.42 2.218h5.97c-6.07.008-10.987 4.518-10.987 10.08v-7.862c0-1.225-1.083-2.218-2.42-2.218H7.233Z"/><path d="m32.05 13.44-.018.02.008.008h.01v-.027Zm.002 0 .018-.02-.008-.007h-.01v.028ZM18.236 9.864h.027-.053.026Zm8.39 10.015v.027-.055.027ZM15.64 29.958h-.027.054-.027Zm-8.406-10.08h-.027v.027h.027v-.027Zm0 0v-.029h-.027v.028h.027Zm12.384-18.67-.018.02L32.032 13.46l.019-.02.018-.02L19.637 1.187l-.019.02Zm-5.43 0 .019.02a3.824 3.824 0 0 1 5.392 0l.019-.02.019-.02a3.876 3.876 0 0 0-5.467 0l.018.02ZM1.755 13.44l.018.02L14.207 1.227l-.019-.02-.018-.02L1.736 13.421l.019.02ZM.543 16.356H.57c0-1.093.435-2.14 1.203-2.895l-.018-.02-.019-.02a4.119 4.119 0 0 0-1.22 2.935h.027Zm0 15.14H.57v-15.14H.517v15.14h.026Zm3.927 4.036v-.028c-2.154 0-3.9-1.795-3.9-4.008H.517c0 2.244 1.77 4.064 3.953 4.064v-.028Zm24.866 0v-.028H4.47v.056h24.866v-.028Zm3.927-4.036h-.027c0 2.214-1.746 4.008-3.9 4.008v.056c2.183 0 3.954-1.82 3.954-4.064h-.027Zm0-15.14h-.027v15.14h.054v-15.14h-.027Zm-1.211-2.915-.019.02a4.062 4.062 0 0 1 1.203 2.895h.054c0-1.109-.44-2.169-1.22-2.935l-.018.02Zm-.001 0v.027-.055.028ZM18.236 9.863h-.026c-.04 5.519-4.936 9.986-10.976 9.986v.056c6.064 0 10.99-4.487 11.03-10.042h-.028Zm0 7.797h.027V9.863h-.053v7.797h.026Zm2.421 2.218v-.028c-1.325 0-2.394-.984-2.394-2.19h-.053c0 1.243 1.098 2.245 2.447 2.245v-.027Zm5.97 0v-.028h-5.97v.055h5.97v-.027ZM15.64 29.958h.027c0-5.544 4.902-10.045 10.96-10.053v-.055c-6.082.008-11.014 4.527-11.014 10.108h.027Zm0-7.863h-.027v7.863h.054v-7.863h-.027Zm-2.42-2.217v.027c1.324 0 2.393.983 2.393 2.19h.054c0-1.243-1.1-2.245-2.448-2.245v.027Zm-5.986 0v.027h5.985v-.055H7.234v.027Zm0 0h-.027.054-.027ZM51.255 35.247V16.966l-3.574 18.281h-4.987V1.497h4.987V19.78l3.575-18.281h4.986v33.75h-4.986ZM62.713 8.12v5.353h-4.898V7.758c0-3.72 1.809-6.578 5.736-6.578h1.016c4.457 0 6.045 2.132 6.045 5.988v5.625c0 2.676-1.324 4.037-2.471 4.49 1.544.5 2.868 1.906 2.868 4.945v7.213c0 3.13-1.544 6.214-6.001 6.214h-1.324c-3.928 0-5.87-2.994-5.87-5.806v-7.394h4.9v6.396c0 1.089.573 1.815 1.632 1.815s1.589-.681 1.589-1.815v-6.85c0-1.088-.574-1.633-1.545-1.633h-2.25v-5.126h2.25c.794 0 1.147-.68 1.147-2.45V8.12c0-1.36-.485-2.04-1.412-2.04-1.015 0-1.412.816-1.412 2.04Zm9.89 27.127V1.497H84.65v4.9h-7.06v8.165h2.912c3.398 0 5.119 2.223 5.119 6.215v8.573c0 4.037-1.589 5.897-5.12 5.897h-7.898Zm4.986-4.899h1.28c1.456 0 1.721-.998 1.721-2.314v-6.123c0-1.361-.22-2.45-1.72-2.45h-1.28v10.887Zm17.92 4.9-.661-6.352h-3.62l-.661 6.351H86.11l4.016-33.75h5.913l4.281 33.75h-4.81ZM91.714 23.86h2.604l-1.324-12.475-1.28 12.475Zm26.609-17.464h-4.192v28.85h-4.943V6.397h-4.192v-4.9h13.327v4.9Zm14.183 22.136c0 3.403-1.102 7.122-6.133 7.122h-1.103c-4.811 0-5.958-3.674-5.958-7.303v-5.897h4.899v5.942c0 1.361.441 2.269 1.632 2.269 1.104 0 1.589-.817 1.589-2.314v-7.984h-5.031v-5.126h5.031v-6.94c0-1.497-.308-2.223-1.544-2.223s-1.677.771-1.677 2.223v5.171h-4.899V8.211c0-3.311.618-7.031 6.09-7.031h1.148c4.5 0 5.956 3.311 5.956 6.759v20.595Zm10.858 6.714-4.149-14.652v14.652h-4.985V1.497h4.985v13.518l3.928-13.517h4.854l-4.633 15.695 5.119 18.054h-5.119Z"/></g><defs><clipPath id="ca"><path fill="#fff" d="M0 0h149v36H0z"/></clipPath></defs></symbol><symbol fill="none" viewBox="0 0 18 18" id="search" xmlns="http://www.w3.org/2000/svg"><g clip-path="url(#da)"><g clip-path="url(#db)"><path d="M12.374 12.388 17 17m-2.667-9.333A6.667 6.667 0 1 1 1 7.667a6.667 6.667 0 0 1 13.333 0Z" stroke="#fff" stroke-width="2" stroke-linecap="round" stroke-linejoin="round"/></g></g><defs><clipPath id="da"><path fill="#fff" d="M0 0h18v18H0z"/></clipPath><clipPath id="db"><path fill="#fff" d="M0 0h18v18H0z"/></clipPath></defs></symbol><symbol fill="none" viewBox="0 0 20 20" id="user" xmlns="http://www.w3.org/2000/svg"><path d="M10 12.75a5.5 5.5 0 1 0 0-11 5.5 5.5 0 0 0 0 11Z" stroke="#fff" stroke-width="2" stroke-miterlimit="10"/><path d="M1.664 17.562a9.628 9.628 0 0 1 16.674 0" stroke="#fff" stroke-width="2" stroke-linecap="round" stroke-linejoin="round"/></symbol></svg>