<svg width="101" height="78" viewBox="0 0 101 78" fill="none" xmlns="http://www.w3.org/2000/svg">
<path d="M58.3371 6.81063C61.435 2.71849 66.6635 0.539234 73.2325 1.47229C74.8588 1.70331 75.3343 3.6437 74.3199 4.74067L68.8736 10.6302C68.7633 10.7496 68.7074 10.9181 68.7281 11.0892L69.3903 16.5657C69.4241 16.8441 69.642 17.0352 69.8814 17.049L75.7534 17.3879C75.9065 17.3967 76.06 17.3332 76.1685 17.2072L81.5572 10.9397C82.0783 10.3335 82.8417 10.1265 83.5182 10.3193C84.2032 10.5145 84.7406 11.1037 84.8266 11.9216C85.1453 14.9555 85.2336 20.3393 82.6761 24.6993C81.3852 26.8999 79.4253 28.83 76.519 30.0509C73.6229 31.2674 69.8329 31.7612 64.9016 31.1797C64.7155 31.1577 64.5299 31.2297 64.4221 31.3507L41.8702 56.6883C41.7444 56.8297 41.6856 57.0551 41.7471 57.2879C43.3534 63.3638 41.2437 69.7418 37.1606 73.4742C35.1109 75.3478 32.5487 76.5676 29.6991 76.7244C26.8449 76.8813 23.7676 75.9686 20.6996 73.6898C20.6724 73.6696 20.6403 73.6493 20.5932 73.6224C19.9144 73.2352 19.2589 72.5105 18.6755 71.6334C18.0813 70.7402 17.5189 69.6241 17.05 68.3769C16.1144 65.8878 15.5248 62.8042 15.8453 59.8243C16.1673 56.8313 17.4155 53.9074 20.1835 51.8529C22.9384 49.8084 27.0932 48.7038 33.0726 49.1096C33.2547 49.122 33.4207 49.052 33.5189 48.9426C35.8798 46.311 47.9127 32.8895 56.104 23.5717C56.2279 23.4309 56.2804 23.2115 56.2145 22.9877C54.3707 16.7334 55.2532 10.8843 58.3371 6.81063ZM62.2363 45.3315C63.0463 44.728 64.188 44.8314 64.8788 45.5977L81.6249 64.1721C81.8374 64.4078 82.0056 64.7032 82.076 65.0529C82.2463 65.8999 82.625 68.3787 81.7254 70.7229C81.2685 71.9137 80.4786 73.0747 79.1732 73.9538C77.8719 74.8299 76.1086 75.392 73.7559 75.4742C73.1997 75.4936 72.6667 75.2625 72.2922 74.8719L53.9456 55.7342C53.1588 54.9134 53.2002 53.5909 54.0398 52.8221L62.0791 45.4614L62.2363 45.3315Z" stroke="#F6F6F6" stroke-width="1.4663"/>
</svg>
