<svg width="101" height="78" viewBox="0 0 101 78" fill="none" xmlns="http://www.w3.org/2000/svg">
<path d="M50.0458 1.19294C49.637 1.37109 48.456 2.37323 47.4339 3.41991C44.8447 6.0032 44.3678 6.13682 41.2789 5.20149C38.5308 4.37751 37.5541 4.28844 36.3277 4.82291C35.0104 5.40192 34.3517 6.51541 33.6704 9.27686C32.8527 12.5728 32.1941 13.2186 28.9008 13.8867C26.5842 14.3544 25.2669 15.0447 24.6537 16.1359C23.9496 17.3162 23.995 18.3406 24.8581 21.2802C25.5622 23.7522 25.5622 23.7522 25.1761 24.7766C24.8808 25.5115 24.3357 26.1796 23.1774 27.1817C21.1787 28.9188 20.4974 30.0323 20.4974 31.5021C20.4974 32.8382 20.6791 33.1055 23.2228 35.711C25.7893 38.3389 25.8347 38.5616 24.5855 42.5033C23.5408 45.8438 24.4493 47.7812 27.4246 48.6275L28.6283 48.9838L24.9717 55.1525C22.973 58.5375 20.6336 62.5238 19.7933 63.9713C18.0899 66.8664 17.8628 67.7572 18.6804 68.5589C19.2255 69.0934 18.9529 69.0711 24.154 69.0043L28.3785 68.9598L30.3544 72.4784C31.4446 74.4381 32.5575 76.242 32.83 76.5315C33.3978 77.1328 34.5562 77.1773 35.2148 76.6206C35.4646 76.4201 37.9857 72.278 40.8247 67.4454C43.6637 62.6129 46.0485 58.5598 46.0939 58.4707C46.162 58.3594 47.0024 59.0275 47.9563 59.9405C50.9316 62.791 52.2943 62.791 55.2696 59.9405C56.2235 59.0275 57.0638 58.3594 57.132 58.4707C57.1774 58.5598 59.5622 62.6129 62.4012 67.4454C65.2402 72.278 67.7612 76.4201 68.0111 76.6206C68.6697 77.1773 69.828 77.1328 70.3958 76.5092C70.6684 76.242 71.7813 74.4381 72.8715 72.4784L74.8701 68.9598L79.0719 69.0043C81.3885 69.0488 83.478 69.0488 83.7051 69.0266C84.3411 68.982 84.9997 68.1803 84.9997 67.4454C84.9997 66.5769 85.136 66.8441 79.4807 57.2459C76.8688 52.7919 74.8247 49.0729 74.9155 48.9838C75.0291 48.8947 75.5515 48.6943 76.0739 48.5384C77.1868 48.2489 78.2769 47.4027 78.7539 46.4896C79.2308 45.6211 79.1854 44.2181 78.6403 42.5033C77.3912 38.5616 77.4366 38.3389 80.0031 35.711C82.5468 33.1055 82.7285 32.8382 82.7285 31.5021C82.7285 30.0323 82.0471 28.9188 80.0485 27.1817C78.8902 26.1796 78.3451 25.5115 78.0498 24.7766C77.6637 23.7522 77.6637 23.7522 78.3678 21.2802C79.2308 18.3406 79.2763 17.3162 78.5722 16.1359C77.959 15.0447 76.6417 14.3544 74.325 13.8867C71.0318 13.2186 70.3731 12.5728 69.5555 9.27686C68.8741 6.51541 68.2155 5.40192 66.8982 4.82291C65.6717 4.28844 64.6951 4.37751 61.9469 5.20149C58.8808 6.13682 58.1086 5.91412 55.8147 3.41991C53.657 1.03705 51.9536 0.391228 50.0458 1.19294ZM52.7031 2.50686C53.0438 2.68502 54.0886 3.59807 55.0198 4.53339C57.6998 7.25031 58.7218 7.51756 62.1968 6.51542C64.7405 5.75825 66.1487 5.71369 66.83 6.31498C67.4433 6.84945 67.6022 7.25031 68.329 9.98949C69.2602 13.5304 70.0552 14.2653 73.8027 15.1338C77.8454 16.0691 78.3451 16.8486 77.1868 20.5008C75.9149 24.5094 76.0512 25.0661 79.1173 28.1616C81.1387 30.1881 81.3658 30.5222 81.3658 31.2348C81.3658 32.4151 80.8888 33.15 79.2081 34.6198C76.3691 37.0472 75.9603 38.6061 77.1186 42.3029C77.9363 44.8194 77.9135 45.6211 77.0505 46.4896C76.5054 47.0241 75.9376 47.2468 74.1433 47.6476C69.9643 48.583 69.124 49.3624 68.1928 53.3041C67.6704 55.4866 67.2389 56.4219 66.6256 56.7559C65.8988 57.1345 64.5361 57.0232 62.5147 56.4219C60.3344 55.7761 58.7673 55.7093 57.5862 56.1992C57.132 56.3996 55.8828 57.424 54.7926 58.5153C51.9082 61.4326 51.0678 61.4326 48.3197 58.4262C45.8895 55.7538 44.3451 55.353 40.7111 56.4219C38.6898 57.0232 37.327 57.1345 36.6002 56.7559C35.987 56.4219 35.5555 55.4866 35.0331 53.3041C34.1019 49.3624 33.2616 48.583 29.0825 47.6476C27.2883 47.2468 26.7205 47.0241 26.1754 46.4896C25.3123 45.6211 25.2896 44.8194 26.1073 42.3029C27.2656 38.6061 26.8568 37.0472 24.0177 34.6198C22.337 33.15 21.8601 32.4151 21.8601 31.2348C21.8601 30.5222 22.0872 30.1881 24.1086 28.1616C27.1747 25.0661 27.311 24.5094 26.0391 20.5008C24.8808 16.8486 25.3805 16.0691 29.4232 15.1338C33.1707 14.2653 33.9656 13.5304 34.8968 9.98949C35.6236 7.25031 35.7826 6.84945 36.3958 6.31498C37.0772 5.71369 38.4853 5.75825 41.0291 6.51542C44.5041 7.51756 45.3444 7.29485 48.2061 4.55567C49.2736 3.53127 50.3411 2.59593 50.5909 2.46232C51.2268 2.106 51.9763 2.12827 52.7031 2.50686ZM32.3077 50.2977C32.9436 50.8767 33.1026 51.2999 34.0111 54.7739C34.4199 56.3774 35.3965 57.7581 36.3731 58.1367C37.327 58.493 38.8942 58.3594 40.9155 57.7581C42.8461 57.2013 44.663 57.0232 44.8902 57.4018C45.0946 57.7135 34.5334 75.5516 34.0792 75.6407C33.8067 75.6852 33.1934 74.7722 31.7171 72.0998C30.627 70.1401 29.5141 68.3139 29.2642 68.069C28.8327 67.6681 28.4693 67.6458 24.472 67.6681C19.2028 67.7127 19.5889 67.7349 19.5889 67.3341C19.5889 67.1336 21.9055 63.0583 24.7218 58.248C27.5608 53.46 29.9002 49.4515 29.9456 49.3624C30.1046 49.0952 31.6717 49.7187 32.3077 50.2977ZM74.6884 51.7453C76.1874 54.3063 78.2996 57.914 81.4566 63.281C82.6604 65.3521 83.637 67.2005 83.5916 67.4009C83.5234 67.7127 83.0011 67.7572 78.981 67.6904C74.7339 67.6458 74.4159 67.6681 73.9616 68.069C73.7118 68.3139 72.5989 70.1401 71.5087 72.0998C70.0324 74.7722 69.4192 75.6852 69.1467 75.6407C68.6924 75.5516 58.1313 57.7135 58.3357 57.4018C58.5628 57.0232 60.3798 57.2013 62.3103 57.7581C64.3317 58.3594 65.8988 58.493 66.8528 58.1367C67.8294 57.7581 68.806 56.3774 69.2148 54.7739C70.1233 51.2999 70.2823 50.8767 70.9182 50.2977C71.5769 49.6964 72.9623 49.1397 73.2349 49.3847C73.303 49.4515 73.9616 50.5204 74.6884 51.7453Z" fill="#F6F6F6"/>
<path d="M47.6814 13.2466C38.7431 15.2503 32.4998 22.7588 32.4549 31.5444C32.41 36.7629 34.3413 41.3648 38.0694 45.042C46.0868 52.9028 59.3595 52.2202 66.4562 43.5888C69.4656 39.9336 70.7906 36.1904 70.7681 31.5444C70.7232 23.4194 65.4231 16.3513 57.4506 13.7751C55.5641 13.1805 54.9577 13.0925 52.1729 13.0264C50.0619 12.9604 48.5797 13.0484 47.6814 13.2466ZM56.6645 14.92C63.6939 17.0999 68.5223 22.7808 69.3308 29.7829C70.3639 38.7005 64.188 47.0237 55.2048 48.8293C52.5098 49.3798 50.7132 49.3798 48.0407 48.8293C39.0126 47.0017 32.8591 38.7226 33.8922 29.7829C34.768 22.1863 40.4948 16.087 48.2653 14.4797C50.0394 14.1274 54.8904 14.3696 56.6645 14.92Z" fill="#F6F6F6"/>
<path d="M55.5774 30.3619L48.9759 36.6613L46.15 33.8568L43.324 31.0738L42.804 31.5484L42.3066 32.023L45.6526 35.2159L48.9759 38.3872L56.0296 31.6563L63.1058 24.9038L62.6537 24.4723L62.2015 24.0409L55.5774 30.3619Z" fill="#F6F6F6"/>
</svg>
