<svg width="101" height="79" viewBox="0 0 101 79" fill="none" xmlns="http://www.w3.org/2000/svg">
<path d="M77.7705 28.8647L77.7529 28.9438L76.7129 33.8071L76.6904 33.9136L76.6387 34.0093L74.0391 38.8726L74.0156 38.9155L73.9873 38.9565L71.9072 41.8735L71.8623 41.937L71.8057 41.9897L69.2236 44.4038L66.1777 47.728L64.1885 50.981L63.1865 54.2622L62.6729 56.6636L62.1699 59.0171V70.2202L62.1436 70.3179L61.624 72.2632L61.5049 72.7085L61.0557 72.814L58.9756 73.3003L58.8887 73.3208H43.1113L43.0244 73.3003L40.9443 72.814L40.5361 72.7183L40.3945 72.3228L39.875 70.8638L39.8301 70.7378V56.6343L38.8496 53.8853L36.8027 49.5786L35.3047 47.2427L32.7715 44.4009L29.6738 41.5034L29.6094 41.4429L29.5596 41.3687L26.96 37.478L26.9062 37.3989L26.875 37.3091L24.7949 31.4731L24.7617 31.3804L24.7529 31.2827L24.2334 25.4478L24.2256 25.3618L24.2363 25.2769L24.7568 21.3862L24.7637 21.3374L24.7764 21.2896L25.8164 17.3989L25.8389 17.314L25.8809 17.2349L27.9609 13.3452L27.9902 13.2896L28.0283 13.2407L30.6279 9.83643L30.667 9.78564L30.7139 9.7417L34.874 5.85107L34.9424 5.7876L35.0234 5.7417L40.2236 2.82373L40.2939 2.78467L40.3711 2.76025L43.4912 1.7876L43.54 1.77197L43.5908 1.76416L49.3105 0.791504L49.4053 0.774902L49.5 0.782715L55.7402 1.26904L55.8262 1.27588L55.9092 1.30127L62.1494 3.24658L62.2324 3.27295L62.3086 3.31689L66.4688 5.74854L66.5176 5.77686L66.5615 5.81201L70.2012 8.72998L70.2578 8.77588L70.3057 8.83057L72.3848 11.2622L72.4072 11.2876L72.4268 11.3159L74.5068 14.2339L74.5469 14.2886L74.5752 14.3501L76.6553 18.7271L76.6943 18.8081L76.7129 18.896L77.7529 23.7593L77.7705 23.8384V28.8647Z" stroke="#F6F6F6" stroke-width="1.54016"/>
<path d="M42 25.8112L50.5556 35.5503L64 21.5503" stroke="#F6F6F6" stroke-width="1.54016"/>
<path d="M37 57.5503H65" stroke="#F6F6F6" stroke-width="1.54016"/>
<path d="M36 64.5503H64" stroke="#F6F6F6" stroke-width="1.54016"/>
<path d="M43.8877 73.5581L45.615 76.5503H56.3842L58.1119 73.5581" stroke="#F6F6F6" stroke-width="1.54016"/>
</svg>
