<svg width="101" height="78" viewBox="0 0 101 78" fill="none" xmlns="http://www.w3.org/2000/svg">
<path d="M62.5537 2.2666C62.9935 2.26662 63.4317 2.3198 63.8584 2.4248L64.8359 2.66602C65.3496 2.79242 65.8418 2.99255 66.2959 3.26074L67.3105 3.85938C68.1801 4.37297 68.8839 5.11992 69.3379 6.01367L69.5703 6.47168C69.7811 6.88662 69.9349 7.32721 70.0273 7.78223L70.3711 9.47363C70.4395 9.81024 70.4736 10.1528 70.4736 10.4961V45.709C70.4736 46.6555 70.2122 47.5833 69.7178 48.3945L69.0039 49.5664C68.7798 49.9342 68.5101 50.274 68.2021 50.5771L67.0674 51.6943C66.5547 52.1991 65.9424 52.5953 65.2695 52.8604V52.8613L64.2275 53.2715C63.5924 53.5216 62.9144 53.6494 62.2305 53.6494H38.6719C37.8743 53.6494 37.097 53.8877 36.4453 54.3301L21.6514 64.374L21.6084 64.4033L21.5635 64.4258L20.6494 64.875C20.4239 64.9859 20.1757 65.0439 19.9248 65.0439C19.0453 65.0438 18.3018 64.3429 18.3018 63.4414V57.4238C18.3017 55.3562 16.5782 53.6494 14.415 53.6494H10.9717C10.3939 53.6494 9.81971 53.5578 9.27148 53.3779L7.39453 52.7617C6.84801 52.5824 6.33407 52.3179 5.87305 51.9775L4.79492 51.1816C4.39056 50.883 4.03096 50.5291 3.72754 50.1309L3.02148 49.2041C2.59683 48.6467 2.28894 48.0113 2.11719 47.335L1.9248 46.5771C1.81983 46.1637 1.7666 45.7388 1.7666 45.3125V10.0605C1.76664 9.63432 1.81981 9.20935 1.9248 8.7959L2.03418 8.36621C2.26804 7.44552 2.75251 6.60602 3.43359 5.93555L3.95898 5.41797C4.13773 5.24202 4.32907 5.07897 4.53125 4.92969L5.98438 3.85645C6.36083 3.57852 6.77318 3.3507 7.20996 3.17871L8.56445 2.64551C9.19952 2.39544 9.87764 2.26664 10.5615 2.2666H62.5537Z" stroke="#F6F6F6" stroke-width="1.4663"/>
</svg>
