<svg width="95" height="59" viewBox="0 0 95 59" fill="none" xmlns="http://www.w3.org/2000/svg">
<g clip-path="url(#clip0_4119_5672)">
<path opacity="0.5" d="M29.5 0C36.2768 0 42.5191 2.28621 47.5 6.12793C40.5061 11.5222 36 19.9844 36 29.5C36 39.0154 40.5064 47.4768 47.5 52.8711C42.519 56.713 36.277 59 29.5 59C13.2076 59 0 45.7924 0 29.5C0 13.2076 13.2076 0 29.5 0Z" fill="#D9D9D9"/>
<circle opacity="0.4" cx="65.5" cy="29.5" r="29.5" fill="#D9D9D9"/>
<path d="M18.9368 34.9769V30.3439C18.9368 28.5717 17.8605 27.4112 16.0128 27.4112C15.089 27.4112 14.0844 27.717 13.3938 28.7246C12.8556 27.879 12.0843 27.4112 10.9273 27.4112C10.1559 27.4112 9.38454 27.6451 8.77463 28.4907V27.5641H7.16016V34.9769H8.77463V30.8837C8.77463 29.5702 9.46526 28.9495 10.5416 28.9495C11.6179 28.9495 12.156 29.6422 12.156 30.8837V34.9769H13.7705V30.8837C13.7705 29.5702 14.5419 28.9495 15.5375 28.9495C16.6138 28.9495 17.1519 29.6422 17.1519 30.8837V34.9769H18.9368ZM42.8848 27.5641H40.2658V25.3241H38.6513V27.5641H37.1893V29.0305H38.6513V32.431C38.6513 34.1313 39.3419 35.1298 41.1896 35.1298C41.8802 35.1298 42.6516 34.8959 43.1897 34.5901L42.7233 33.1957C42.2569 33.5015 41.7188 33.5825 41.3331 33.5825C40.5617 33.5825 40.2568 33.1147 40.2568 32.35V29.0305H42.8758V27.5641H42.8848ZM56.5898 27.4022C55.666 27.4022 55.0471 27.87 54.6614 28.4817V27.5551H53.047V34.9679H54.6614V30.7937C54.6614 29.5612 55.1996 28.8595 56.2042 28.8595C56.5091 28.8595 56.8948 28.9405 57.2087 29.0125L57.6751 27.4651C57.3522 27.4022 56.8948 27.4022 56.5898 27.4022ZM35.8798 28.1758C35.1084 27.6361 34.0321 27.4022 32.8751 27.4022C31.0274 27.4022 29.7986 28.3288 29.7986 29.7951C29.7986 31.0276 30.7224 31.7293 32.3369 31.9542L33.1083 32.0352C33.9514 32.1881 34.4178 32.422 34.4178 32.8088C34.4178 33.3486 33.7989 33.7354 32.7226 33.7354C31.6463 33.7354 30.7942 33.3486 30.256 32.9618L29.4847 34.1942C30.3278 34.815 31.4848 35.1209 32.6419 35.1209C34.7945 35.1209 36.0323 34.1133 36.0323 32.7279C36.0323 31.4144 35.0277 30.7217 33.494 30.4878L32.7226 30.4069C32.032 30.3259 31.4938 30.173 31.4938 29.7142C31.4938 29.1744 32.032 28.8685 32.884 28.8685C33.8079 28.8685 34.7317 29.2554 35.1981 29.4893L35.8798 28.1758ZM78.8337 27.4022C77.9098 27.4022 77.2909 27.87 76.9053 28.4817V27.5551H75.2908V34.9679H76.9053V30.7937C76.9053 29.5612 77.4434 28.8595 78.448 28.8595C78.7529 28.8595 79.1386 28.9405 79.4525 29.0125L79.9189 27.4831C79.605 27.4022 79.1476 27.4022 78.8337 27.4022ZM58.2043 31.2705C58.2043 33.5105 59.747 35.1298 62.1329 35.1298C63.2092 35.1298 63.9805 34.8959 64.7519 34.2842L63.9805 32.9708C63.3616 33.4386 62.7517 33.6635 62.0521 33.6635C60.7426 33.6635 59.8188 32.7369 59.8188 31.2705C59.8188 29.8761 60.7426 28.9495 62.0521 28.8775C62.7428 28.8775 63.3616 29.1114 63.9805 29.5702L64.7519 28.2568C63.9805 27.6361 63.2092 27.4112 62.1329 27.4112C59.747 27.4022 58.2043 29.0305 58.2043 31.2705ZM73.1382 31.2705V27.5641H71.5237V28.4907C70.9855 27.798 70.2142 27.4112 69.2096 27.4112C67.1287 27.4112 65.5143 29.0305 65.5143 31.2705C65.5143 33.5105 67.1287 35.1298 69.2096 35.1298C70.2859 35.1298 71.0573 34.743 71.5237 34.0503V34.9769H73.1382V31.2705ZM67.2095 31.2705C67.2095 29.9571 68.0526 28.8775 69.4428 28.8775C70.7523 28.8775 71.6762 29.8851 71.6762 31.2705C71.6762 32.5839 70.7523 33.6635 69.4428 33.6635C68.0616 33.5825 67.2095 32.5749 67.2095 31.2705ZM47.8896 27.4022C45.737 27.4022 44.1943 28.9495 44.1943 31.2615C44.1943 33.5825 45.737 35.1209 47.9704 35.1209C49.0467 35.1209 50.123 34.815 50.9751 34.1133L50.2037 32.9528C49.5848 33.4206 48.8135 33.7264 48.0511 33.7264C47.0465 33.7264 46.0509 33.2586 45.8177 31.9542H51.28C51.28 31.7203 51.28 31.5674 51.28 31.3335C51.3518 28.9495 49.9615 27.4022 47.8896 27.4022ZM47.8896 28.7966C48.8942 28.7966 49.5848 29.4173 49.7373 30.5688H45.8895C46.042 29.5702 46.7326 28.7966 47.8896 28.7966ZM88.0003 31.2705V24.6313H86.3858V28.4907C85.8476 27.798 85.0763 27.4112 84.0717 27.4112C81.9908 27.4112 80.3764 29.0305 80.3764 31.2705C80.3764 33.5105 81.9908 35.1298 84.0717 35.1298C85.148 35.1298 85.9194 34.743 86.3858 34.0503V34.9769H88.0003V31.2705ZM82.0716 31.2705C82.0716 29.9571 82.9147 28.8775 84.3049 28.8775C85.6144 28.8775 86.5383 29.8851 86.5383 31.2705C86.5383 32.5839 85.6144 33.6635 84.3049 33.6635C82.9147 33.5825 82.0716 32.5749 82.0716 31.2705ZM28.0227 31.2705V27.5641H26.4082V28.4907C25.8701 27.798 25.0987 27.4112 24.0942 27.4112C22.0133 27.4112 20.3988 29.0305 20.3988 31.2705C20.3988 33.5105 22.0133 35.1298 24.0942 35.1298C25.1705 35.1298 25.9418 34.743 26.4082 34.0503V34.9769H28.0227V31.2705ZM22.0222 31.2705C22.0222 29.9571 22.8654 28.8775 24.2556 28.8775C25.5651 28.8775 26.4889 29.8851 26.4889 31.2705C26.4889 32.5839 25.5651 33.6635 24.2556 33.6635C22.8654 33.5825 22.0222 32.5749 22.0222 31.2705Z" fill="white"/>
</g>
<defs>
<clipPath id="clip0_4119_5672">
<rect width="95" height="59" fill="white"/>
</clipPath>
</defs>
</svg>
