<svg width="132" height="32" viewBox="0 0 132 32" fill="none" xmlns="http://www.w3.org/2000/svg">
<g clip-path="url(#clip0_4125_5301)">
<path d="M67.1996 9.51748H62.8195L59.7199 14.9439H58.1242L58.0735 3.2002H53.9268V24.4097H58.0735L58.1242 18.5885H59.7094L63.8256 24.4097H68.4194L63.0533 16.6953L67.1996 9.51748Z" fill="white"/>
<path d="M98.5832 16.5028C97.7405 15.9598 96.8278 15.534 95.8696 15.2374L94.9548 14.8932L94.7073 14.8006C94.1391 14.5884 93.5423 14.3654 93.5218 13.7896C93.5165 13.6187 93.5548 13.4492 93.6328 13.297C93.7113 13.1447 93.8268 13.0147 93.9693 12.919C94.2695 12.7128 94.6212 12.5937 94.9854 12.5748C95.7794 12.5202 96.5666 12.754 97.2009 13.2328L97.3127 13.3037L99.5282 10.7626L99.4167 10.6715C99.1406 10.4266 98.8412 10.2095 98.5221 10.0236C97.9506 9.69793 97.3292 9.46873 96.6825 9.34529C95.7513 9.14793 94.7886 9.14793 93.8574 9.34529C92.9567 9.46401 92.1028 9.81277 91.3776 10.3577C90.914 10.7191 90.526 11.168 90.2367 11.6787C89.9473 12.1894 89.7618 12.7519 89.6905 13.3341C89.5634 14.3847 89.8314 15.445 90.4423 16.3105C91.2544 17.2062 92.3161 17.8406 93.4916 18.1328L93.6743 18.1936L94.0912 18.3353C95.5951 18.8415 96.0221 19.044 96.266 19.3477C96.3795 19.5004 96.4431 19.6841 96.4487 19.8741C96.4487 20.5929 95.5645 20.8865 94.9649 21.0687C94.546 21.1472 94.115 21.1391 93.6988 21.0451C93.2827 20.951 92.8903 20.773 92.5463 20.522C91.9893 20.1509 91.5124 19.6724 91.1437 19.1148C91.0822 19.1786 90.8785 19.3815 90.6121 19.6466C89.8644 20.3909 88.6237 21.626 88.6539 21.6559L88.7251 21.7571C89.8318 23.1374 91.3824 24.0956 93.1153 24.4703C93.5113 24.5466 93.9121 24.5974 94.3146 24.6222H94.7315C96.1002 24.6508 97.4415 24.235 98.5527 23.4377C99.304 22.9082 99.8807 22.1682 100.209 21.3117C100.409 20.7367 100.48 20.125 100.417 19.5198C100.354 18.9146 100.158 18.3305 99.8433 17.8088C99.5221 17.2886 99.0923 16.8432 98.5832 16.5028Z" fill="white"/>
<path d="M109.275 15.2371C110.23 15.5337 111.14 15.9595 111.978 16.5026C112.479 16.8429 112.901 17.2845 113.218 17.7984C113.533 18.3201 113.729 18.9042 113.792 19.5094C113.855 20.1146 113.784 20.7263 113.584 21.3013C113.256 22.1578 112.679 22.8978 111.928 23.4273C110.817 24.2246 109.476 24.6403 108.107 24.6118H107.69C107.287 24.5875 106.886 24.5368 106.49 24.4599C104.757 24.0851 103.207 23.127 102.1 21.7467L102.019 21.6455C101.999 21.6189 102.979 20.6395 103.72 19.8995C104.109 19.5109 104.432 19.1881 104.509 19.1044C104.883 19.6576 105.359 20.1351 105.911 20.5116C106.257 20.7629 106.651 20.941 107.069 21.035C107.487 21.1291 107.919 21.137 108.34 21.0583C108.94 20.8761 109.814 20.5825 109.814 19.8637C109.819 19.6735 109.758 19.4875 109.641 19.3373C109.397 19.0335 108.97 18.8311 107.456 18.3249L107.039 18.1831L106.867 18.1224C105.691 17.8301 104.629 17.1957 103.818 16.3001C103.201 15.4371 102.932 14.3747 103.066 13.3237C103.14 12.7416 103.329 12.1799 103.622 11.6708C103.915 11.1618 104.306 10.7154 104.773 10.3574C105.5 9.81566 106.353 9.46722 107.253 9.34498C108.187 9.14738 109.153 9.14738 110.088 9.34498C110.732 9.46878 111.35 9.69802 111.918 10.0233C112.241 10.2067 112.545 10.4239 112.822 10.6712L112.924 10.7623L110.708 13.3034L110.607 13.2325C109.971 12.7553 109.185 12.5217 108.391 12.5745C108.027 12.5934 107.675 12.7125 107.375 12.9187C107.236 13.0182 107.122 13.1488 107.042 13.3C106.963 13.4512 106.92 13.6187 106.917 13.7894C106.948 14.3664 107.537 14.5891 108.117 14.8017L108.35 14.8929L109.275 15.2371Z" fill="white"/>
<path fill-rule="evenodd" clip-rule="evenodd" d="M80.8182 9.51722V10.9751H80.6351C79.5002 9.84298 77.9625 9.2027 76.3563 9.19326C75.372 9.17386 74.3941 9.36126 73.487 9.74326C72.5799 10.1253 71.7641 10.6933 71.092 11.4104C69.7366 12.9223 69.0098 14.8914 69.0593 16.9177C69.0066 18.9781 69.7322 20.9831 71.092 22.5365C71.748 23.254 72.5513 23.8225 73.4475 24.2033C74.3433 24.5841 75.3112 24.7684 76.2851 24.7435C77.8933 24.7134 79.4398 24.1223 80.6552 23.0731H80.8182V24.3791H85.1271V9.51722H80.8182ZM81.0315 16.9987C81.0745 18.1964 80.6729 19.3679 79.9034 20.289C79.5344 20.7005 79.0792 21.0263 78.5698 21.2432C78.0607 21.4601 77.5097 21.5629 76.956 21.5444C76.4191 21.5533 75.8871 21.4415 75.3997 21.2171C74.9124 20.9927 74.4818 20.6617 74.1409 20.2485C73.3803 19.3083 72.9899 18.1241 73.0431 16.9177C73.0089 15.7477 73.4065 14.6057 74.161 13.7085C74.5088 13.3016 74.9422 12.9763 75.4303 12.7557C75.9189 12.5352 76.4501 12.4249 76.9866 12.4329C77.5363 12.4158 78.0832 12.5205 78.5875 12.7393C79.0921 12.9581 79.5413 13.2857 79.9034 13.6984C80.6729 14.6235 81.0741 15.7981 81.0315 16.9987Z" fill="white"/>
<path fill-rule="evenodd" clip-rule="evenodd" d="M127.691 10.9754V9.51756H132V24.3794H127.691V23.0734H127.528C126.313 24.1226 124.766 24.7138 123.158 24.7438C122.184 24.7687 121.216 24.5845 120.32 24.2037C119.424 23.8228 118.621 23.2544 117.965 22.5368C116.605 20.9835 115.88 18.9785 115.932 16.9181C115.883 14.8918 116.61 12.9226 117.965 11.4107C118.64 10.6944 119.458 10.127 120.366 9.74508C121.275 9.3632 122.253 9.17532 123.239 9.1936C124.842 9.20568 126.376 9.84576 127.508 10.9754H127.691ZM126.776 20.2894C127.55 19.3706 127.952 18.1975 127.905 16.9991C127.952 15.7977 127.55 14.6215 126.776 13.6987C126.414 13.286 125.965 12.9585 125.461 12.7397C124.956 12.5208 124.409 12.4162 123.86 12.4332C123.323 12.4253 122.792 12.5356 122.303 12.7561C121.815 12.9766 121.382 13.302 121.034 13.7088C120.28 14.6061 119.882 15.7481 119.916 16.9181C119.863 18.1244 120.253 19.3087 121.014 20.2489C121.355 20.662 121.785 20.9931 122.273 21.2175C122.76 21.4418 123.292 21.5537 123.829 21.5447C124.383 21.5633 124.934 21.4605 125.443 21.2436C125.952 21.0266 126.407 20.7009 126.776 20.2894Z" fill="white"/>
<path fill-rule="evenodd" clip-rule="evenodd" d="M28.9756 32C37.8661 32 45.0732 24.8366 45.0732 16C45.0732 7.16344 37.8661 0 28.9756 0C21.8456 0 15.7983 4.60736 13.6829 10.9901V4.8H0L7.64634 28.8H13.6829V21.0099C15.7983 27.3926 21.8456 32 28.9756 32ZM28.9756 22C32.3095 22 35.0122 19.3137 35.0122 16C35.0122 12.6863 32.3095 10 28.9756 10C25.6417 10 22.939 12.6863 22.939 16C22.939 19.3137 25.6417 22 28.9756 22Z" fill="white"/>
</g>
<defs>
<clipPath id="clip0_4125_5301">
<rect width="132" height="32" fill="white"/>
</clipPath>
</defs>
</svg>
