<svg width="176" height="28" viewBox="0 0 176 28" fill="none" xmlns="http://www.w3.org/2000/svg">
<g clip-path="url(#clip0_4119_5848)">
<path d="M163.763 13.8942C163.763 12.8002 165.257 11.9178 167.215 11.9178C169.257 11.9178 171.341 12.8853 172.75 14.4623L175.298 11.3505C172.877 9.20475 170.414 8.09052 167.341 8.09052C163.51 8.09052 159.554 9.85708 159.554 13.8942C159.554 18.8576 163.847 19.2149 167.341 19.5099C169.299 19.6558 171.025 19.8041 171.025 21.0868C171.025 22.4741 169.046 23.1046 167.299 23.1046C165.278 23.1046 163.089 22.2432 161.49 20.3292L158.774 23.2107C160.942 25.8606 164.079 27.0169 167.151 27.0169C171.004 27.0169 175.235 25.1872 175.235 21.0026C175.235 16.2701 170.898 15.8082 167.573 15.472C165.488 15.2613 163.763 15.0725 163.763 13.8942ZM144.398 15.0725C145.093 13.327 146.587 12.3173 148.797 12.3173C151.028 12.3173 152.354 13.3894 152.923 15.0725H144.398ZM149.008 8.09052C143.746 8.09052 139.514 12.1909 139.514 17.5748C139.514 22.6427 143.261 27.0169 148.776 27.0169C152.102 27.0169 154.796 25.4181 156.711 22.6848L153.807 20.2246C152.775 21.8016 150.923 22.727 148.713 22.727C146.461 22.727 144.124 21.0447 143.935 18.5626H157.68V17.091C157.637 11.8967 154.101 8.09052 149.008 8.09052ZM95.165 8.09052C89.9029 8.09052 85.6722 12.1909 85.6722 17.5748C85.6722 22.6427 89.4192 27.0169 94.9337 27.0169C98.2595 27.0169 100.954 25.4181 102.869 22.6848L99.9646 20.2246C98.9331 21.8016 97.0811 22.727 94.8704 22.727C92.6183 22.727 90.2819 21.0447 90.0928 18.5626H103.837V17.091C103.816 11.8967 100.259 8.09052 95.165 8.09052ZM133.158 26.3646H137.368V8.74204H133.158V26.3654V26.3646ZM135.263 0.162109C133.558 0.162109 132.106 1.59237 132.106 3.37918C132.106 5.14573 133.516 6.45039 135.347 6.45039C137.137 6.45039 138.442 5.18868 138.442 3.4432C138.42 1.65558 136.989 0.162109 135.263 0.162109ZM74.243 8.06946C72.2644 8.06946 70.4757 8.65858 68.9597 9.68852V0.372799H64.7501V17.5748C64.7501 22.8104 69.023 27.0169 74.2219 27.0169C79.4629 27.0169 83.7569 22.8323 83.7569 17.5327C83.7358 12.2541 79.5262 8.06946 74.243 8.06946ZM52.3527 8.36361C47.6586 8.84739 43.8273 12.8853 43.8273 17.7012C43.8273 22.7902 48.1853 27.0591 53.2787 27.0591C58.351 27.0591 62.7293 22.7902 62.7293 17.7012C62.7293 15.5352 61.9502 13.5369 60.6875 11.9599L51.3423 0.393868H45.8903L52.3527 8.36361ZM19.7271 18.7733L15.8746 8.74204H12.9295L9.0559 18.7733L5.18313 8.74204H0.59375L7.3711 26.4076H10.3179L14.3806 15.8925L18.4854 26.4067H21.4314L28.1885 8.74204H23.621L19.7271 18.7733ZM110.257 12.7589V8.74204H106.047V26.3654H110.257V18.9216C110.257 15.3042 114.13 13.096 117.982 13.096V8.74285H117.561C114.298 8.74285 111.941 9.92109 110.257 12.7597V12.7589ZM123.623 12.7589V8.74204H119.414V26.3654H123.623V18.9216C123.623 15.3042 127.496 13.096 131.348 13.096V8.74285H130.927C127.685 8.74285 125.328 9.92109 123.623 12.7597V12.7589ZM37.45 26.3646H41.6588V0.393868H37.4492V26.3654L37.45 26.3646ZM53.2998 22.8104C50.3944 22.8104 48.0376 20.4766 48.0376 17.5748C48.0376 14.6519 50.3944 12.3173 53.2787 12.3173C56.2044 12.3173 58.5831 14.6511 58.5831 17.5748C58.5831 20.4766 56.2044 22.8104 53.2998 22.8104ZM74.2219 22.8104C73.5302 22.8118 72.8451 22.6768 72.2059 22.4131C71.5667 22.1494 70.9859 21.7622 70.497 21.2737C70.008 20.7853 69.6205 20.2052 69.3567 19.5668C69.0929 18.9285 68.958 18.2443 68.9597 17.5537C68.9597 14.673 71.2118 12.3173 74.243 12.3173C77.2742 12.3173 79.5262 14.673 79.5262 17.5327C79.5262 20.5188 77.1264 22.8104 74.2219 22.8104ZM30.146 26.3646H34.3555V8.74204H30.146V26.3654V26.3646ZM32.2089 0.162109C30.5039 0.162109 29.0723 1.59237 29.0723 3.40106C29.0723 5.23082 30.5672 6.47145 32.2089 6.47145C34.0398 6.47145 35.4292 4.95692 35.4292 3.31678C35.4081 1.65558 33.9554 0.162109 32.2089 0.162109ZM90.5554 15.0725C91.2712 13.327 92.745 12.3173 94.9337 12.3173C97.1858 12.3173 98.5541 13.3894 99.1222 15.0725H90.5554Z" fill="#410050"/>
</g>
<defs>
<clipPath id="clip0_4119_5848">
<rect width="176" height="28" fill="white"/>
</clipPath>
</defs>
</svg>
