<svg width="204" height="30" viewBox="0 0 204 30" fill="none" xmlns="http://www.w3.org/2000/svg">
<g clip-path="url(#clip0_4119_5851)">
<mask id="mask0_4119_5851" style="mask-type:luminance" maskUnits="userSpaceOnUse" x="0" y="0" width="30" height="30">
<path d="M0 0H30V30H0V0Z" fill="white"/>
</mask>
<g mask="url(#mask0_4119_5851)">
<path d="M15 30C23.2843 30 30 23.2843 30 15C30 6.71573 23.2843 0 15 0C6.71573 0 0 6.71573 0 15C0 23.2843 6.71573 30 15 30Z" fill="#FF5226"/>
<path d="M17.4303 24.4501V8.39008H15.5463C14.1883 8.39008 13.1583 8.67808 12.4583 9.25508C11.7583 9.81108 11.4083 10.5521 11.4083 11.4791C11.4083 12.1791 11.5313 12.7761 11.7783 13.2701C12.0253 13.7641 12.3863 14.2171 12.8593 14.6291C13.3333 15.0411 13.9303 15.4941 14.6513 15.9881L16.4423 17.1921L11.1923 24.4511H7.23828L12.2423 17.6561L14.5893 19.7561L12.7363 18.5821C11.8045 17.9769 10.9169 17.3062 10.0803 16.5751C9.33828 15.9151 8.77228 15.1951 8.38128 14.4131C7.99028 13.6301 7.79428 12.7141 7.79428 11.6641C7.79428 9.85208 8.44328 8.39008 9.74028 7.27808C11.0583 6.14608 12.9833 5.58008 15.5153 5.58008H21.1053V24.4501H17.4303Z" fill="white"/>
</g>
<path d="M47.5547 30C39.2797 30 32.5547 23.301 32.5547 15.027C32.5547 6.752 39.2797 0 47.5547 0C55.8287 0 62.5547 6.752 62.5547 15.027C62.5547 23.301 55.8287 30 47.5547 30Z" fill="#FF5226"/>
<path d="M45.232 2.02979L28.498 28.1398H36.169L45.836 13.0898L45.6 12.9828L42.92 23.7528L48.594 24.7528L54.426 17.4228L54.11 17.2658L52.14 25.5918L64.503 23.2358L61.981 19.0818L57.525 20.1018L58.051 20.7068L60.126 12.0118L55.292 8.77979L48.962 16.7398L49.277 16.8978L51.877 6.46778L45.232 2.02979Z" fill="#FFDD00"/>
<path d="M45.232 2.02979L28.498 28.1398H36.169L45.836 13.0898L45.6 12.9828L42.92 23.7528L48.594 24.7528L54.426 17.4228L54.11 17.2658L52.14 25.5918L57.11 24.6448L60.126 12.0118L55.292 8.77979L48.962 16.7398L49.277 16.8978L51.877 6.46778L45.232 2.02979Z" fill="#FFDD00"/>
<path d="M68.3047 24.4501L77.6317 5.5801H84.7347L86.1867 17.0691L93.3827 5.5791H100.425V24.4501H93.5377V14.3201L87.1437 24.4501H80.2567L78.9297 14.2271L73.8637 24.4501H68.3047ZM121.581 20.7131C121.581 21.3521 121.592 21.9801 121.612 22.5971C121.633 23.2151 121.674 23.8221 121.736 24.4191H115.342C115.19 24.1226 115.066 23.8126 114.972 23.4931C114.846 23.0702 114.763 22.6357 114.725 22.1961C114.066 22.9781 113.232 23.6261 112.223 24.1411C111.235 24.6361 109.824 24.8831 107.992 24.8831C106.139 24.8831 104.656 24.4501 103.544 23.5861C102.453 22.7211 101.908 21.5681 101.908 20.1261C101.908 18.7881 102.288 17.7591 103.05 17.0381C103.833 16.2971 105.047 15.7821 106.695 15.4941C108.342 15.1841 110.452 15.0301 113.026 15.0301H114.632V14.6901C114.632 14.0321 114.354 13.5271 113.798 13.1771C113.242 12.8271 112.202 12.6521 110.679 12.6521C109.176 12.6521 107.776 12.8481 106.478 13.2391C105.202 13.6091 104.162 13.9801 103.359 14.3511V10.2121C104.265 9.8821 105.48 9.5531 107.004 9.2241C108.548 8.8741 110.308 8.6991 112.285 8.6991C114.282 8.6991 115.97 8.8841 117.35 9.2551C118.73 9.6051 119.78 10.2121 120.5 11.0771C121.221 11.9211 121.581 13.0951 121.581 14.5981V20.7131ZM123.681 9.1631H130.075L130.445 11.7871C131.228 10.7581 132.164 10.0071 133.256 9.5331C134.347 9.0591 135.603 8.8231 137.024 8.8231C138.63 8.8231 140.071 9.1111 141.348 9.6871C142.596 10.2399 143.651 11.1547 144.374 12.3131C145.116 13.4861 145.486 14.9691 145.486 16.7601C145.486 18.5511 145.116 20.0441 144.374 21.2381C143.654 22.4121 142.645 23.2981 141.348 23.8941C140.05 24.4921 138.568 24.7901 136.9 24.7901C135.706 24.7977 134.521 24.5774 133.41 24.1411C132.339 23.6891 131.413 22.9781 130.631 22.0111V28.4351H123.681V9.1621V9.1631ZM165.623 16.7601C165.623 15.2361 166.035 13.8771 166.859 12.6831C167.703 11.4891 168.897 10.5531 170.441 9.8731C172.006 9.1731 173.849 8.8231 175.97 8.8231C178.173 8.8231 180.016 9.2031 181.498 9.9651C183.001 10.7271 184.051 11.8081 184.648 13.2081C185.266 14.6081 185.348 16.2661 184.895 18.1811H172.696C172.943 19.0661 173.489 19.7351 174.333 20.1881C175.198 20.6211 176.474 20.8371 178.162 20.8371C179.336 20.8371 180.427 20.7341 181.436 20.5271C182.385 20.3174 183.323 20.0601 184.247 19.7561V23.4311C183.361 23.8431 182.373 24.1721 181.282 24.4191C180.211 24.6661 178.801 24.7901 177.051 24.7901C173.2 24.7901 170.328 24.0801 168.434 22.6591C166.56 21.2181 165.623 19.2521 165.623 16.7601ZM185.482 9.1621H203.118V13.1161H197.62V24.4191H190.671V13.1161H185.482V9.1621ZM146.814 9.1621H153.763V16.0801L160.342 9.1621H166.334L160.218 15.5241L167.6 24.4191H159.199L153.763 17.6861V24.4191H146.814V9.1621ZM176.001 12.2821C175.053 12.2821 174.302 12.5601 173.746 13.1161C173.19 13.6511 172.83 14.3411 172.665 15.1851H178.78C178.76 14.3411 178.533 13.6511 178.101 13.1151C177.668 12.5601 176.968 12.2821 176.001 12.2821ZM138.383 16.7601C138.383 15.5241 138.043 14.5461 137.363 13.8261C136.705 13.0851 135.757 12.7141 134.522 12.7141C133.39 12.7141 132.442 13.0641 131.681 13.7641C130.919 14.4441 130.538 15.4421 130.538 16.7601C130.538 18.0781 130.908 19.0971 131.65 19.8181C132.412 20.5181 133.369 20.8681 134.522 20.8681C135.799 20.8681 136.756 20.4971 137.394 19.7561C138.053 19.0151 138.383 18.0161 138.383 16.7601ZM114.632 17.8401H113.057C111.554 17.8401 110.473 17.9651 109.814 18.2121C109.176 18.4591 108.857 18.9321 108.857 19.6321C108.857 20.2291 109.063 20.6721 109.474 20.9601C109.907 21.2281 110.421 21.3621 111.019 21.3621C111.925 21.3621 112.666 21.1971 113.242 20.8681C113.839 20.5181 114.303 20.1161 114.632 19.6631V17.8401Z" fill="#191817"/>
</g>
<defs>
<clipPath id="clip0_4119_5851">
<rect width="204" height="30" fill="white"/>
</clipPath>
</defs>
</svg>
