<svg width="149" height="36" viewBox="0 0 149 36" fill="none" xmlns="http://www.w3.org/2000/svg">
<g clip-path="url(#clip0_4119_5803)">
<path fill-rule="evenodd" clip-rule="evenodd" d="M32.0503 13.4405L19.6175 1.20675C18.0995 -0.286859 15.7059 -0.286859 14.1877 1.20675L1.7543 13.4405C0.980432 14.2018 0.542969 15.2552 0.542969 16.3558V31.4953C0.542969 33.7241 2.3006 35.5316 4.46955 35.5316H29.3358C31.504 35.5316 33.2624 33.7249 33.2624 31.4953V16.3558C33.2624 15.2544 32.8249 14.2018 32.0511 13.4405H32.0503ZM7.23348 19.8768C13.2859 19.8768 18.1969 15.3994 18.2359 9.86251V17.6593C18.2359 18.8841 19.3196 19.8771 20.6565 19.8771H26.6258C20.5566 19.8851 15.6393 24.3952 15.6393 29.9576V22.0948C15.6393 20.87 14.5556 19.8771 13.2187 19.8771H7.23341L7.23348 19.8768Z" fill="white"/>
<path d="M32.0508 13.4409L32.0323 13.4607L32.04 13.4684H32.0508V13.4409ZM32.0516 13.4409L32.0701 13.4209L32.0624 13.4132H32.0516V13.4409ZM18.2364 9.86289H18.2632L18.2096 9.86263L18.2364 9.86289ZM26.6263 19.8775V19.905V19.8498V19.8775ZM15.6398 29.958H15.6129H15.6666H15.6398ZM7.2339 19.8775H7.20704V19.905H7.2339V19.8775ZM7.2339 19.8772V19.8495H7.20704V19.8772H7.2339ZM19.618 1.20713L19.5995 1.22707L32.0323 13.4607L32.0508 13.4409L32.0694 13.4209L19.6367 1.18719L19.618 1.20713ZM14.1882 1.20713L14.2068 1.22707C15.7145 -0.256311 18.0919 -0.256311 19.5995 1.22707L19.618 1.20713L19.6367 1.18719C18.1082 -0.316655 15.6981 -0.316655 14.1697 1.18719L14.1882 1.20713ZM1.75479 13.4409L1.77337 13.4607L14.2068 1.22707L14.1882 1.20713L14.1697 1.18719L1.73622 13.4209L1.75479 13.4409ZM0.543459 16.3562H0.57033C0.57033 15.263 1.0048 14.2169 1.77337 13.4607L1.75479 13.4409L1.73622 13.4209C0.957059 14.1874 0.516602 15.248 0.516602 16.3562H0.543459ZM0.543459 31.4957H0.57033V16.3562H0.543459H0.516602V31.4957H0.543459ZM4.47005 35.532V35.5043C2.31593 35.5043 0.57033 33.7093 0.57033 31.4957H0.543459H0.516602C0.516602 33.7397 2.28625 35.5595 4.47005 35.5595V35.532ZM29.3363 35.532V35.5043H4.47005V35.532V35.5595H29.3363V35.532ZM33.2629 31.4957H33.2361C33.2361 33.7099 31.4897 35.5043 29.3363 35.5043V35.532V35.5595C31.5194 35.5595 33.2897 33.7404 33.2897 31.4957H33.2629ZM33.2629 16.3562H33.2361V31.4957H33.2629H33.2897V16.3562H33.2629ZM32.0516 13.4409L32.033 13.4607C32.8015 14.2169 33.2361 15.2624 33.2361 16.3562H33.2629H33.2897C33.2897 15.2473 32.8493 14.1874 32.0701 13.4209L32.0516 13.4409ZM32.0508 13.4409V13.4684H32.0516V13.4409V13.4132H32.0508V13.4409ZM18.2364 9.86289L18.2096 9.86263C18.1706 15.3816 13.2745 19.8495 7.2339 19.8495V19.8772L7.23397 19.9048C13.2981 19.9048 18.2241 15.4179 18.2632 9.86289H18.2364ZM18.2364 17.6597H18.2632V9.86289H18.2364H18.2096V17.6597H18.2364ZM20.657 19.8775V19.8498C19.3319 19.8498 18.2632 18.8663 18.2632 17.6597H18.2364H18.2096C18.2096 18.9026 19.3082 19.905 20.657 19.905V19.8775ZM26.6263 19.8775V19.8498H20.657V19.8775V19.905H26.6263V19.8775ZM15.6398 29.958H15.6666C15.6666 24.4137 20.569 19.913 26.6263 19.905V19.8775V19.8498C20.5454 19.8578 15.613 24.3775 15.6129 29.958H15.6398ZM15.6398 22.0951H15.6129V29.958H15.6398H15.6666V22.0951H15.6398ZM13.2192 19.8775V19.905C14.5442 19.905 15.6129 20.8885 15.6129 22.0951H15.6398H15.6666C15.6666 20.8522 14.5679 19.8498 13.2192 19.8498V19.8775ZM7.2339 19.8775V19.905H13.2192V19.8775V19.8498H7.2339V19.8775ZM7.2339 19.8772H7.20704V19.8775H7.2339H7.26077V19.8772H7.2339Z" fill="white"/>
<path d="M51.2555 35.2471V16.966L47.6809 35.2471H42.6943V1.49753H47.6809V19.7785L51.2555 1.49753H56.2422V35.2471H51.2555ZM62.7131 8.12043V13.4732H57.8146V7.75754C57.8146 4.03782 59.624 1.17999 63.5515 1.17999H64.5665C69.0237 1.17999 70.6124 3.31202 70.6124 7.16782V12.7927C70.6124 15.4692 69.2884 16.83 68.141 17.2836C69.6855 17.7826 71.0095 19.1889 71.0095 22.2281V29.4407C71.0095 32.5707 69.465 35.6554 65.0077 35.6554H63.6839C59.7563 35.6554 57.8146 32.6615 57.8146 29.849V22.455H62.7131V28.851C62.7131 29.9397 63.2867 30.6655 64.3459 30.6655C65.4049 30.6655 65.9346 29.985 65.9346 28.851V22.0013C65.9346 20.9126 65.3608 20.3683 64.39 20.3683H62.1393V15.2423H64.39C65.1843 15.2423 65.5374 14.5619 65.5374 12.7927V8.12043C65.5374 6.75956 65.052 6.07913 64.1252 6.07913C63.1103 6.07913 62.7131 6.89565 62.7131 8.12043ZM72.6026 35.2471V1.49753H84.65V6.39666H77.5893V14.5619H80.5019C83.8999 14.5619 85.6209 16.7846 85.6209 20.7766V29.35C85.6209 33.3872 84.0323 35.2471 80.5019 35.2471H72.6026ZM77.5893 30.348H78.8691C80.3254 30.348 80.5901 29.35 80.5901 28.0344V21.9105C80.5901 20.5497 80.3695 19.4611 78.8691 19.4611H77.5893V30.348ZM95.5094 35.2471L94.8476 28.8964H91.2288L90.567 35.2471H86.1099L90.1257 1.49753H96.0391L100.32 35.2471H95.5094ZM91.7143 23.8611H94.3179L92.9941 11.3865L91.7143 23.8611ZM118.323 6.39666H114.131V35.2471H109.188V6.39666H104.996V1.49753H118.323V6.39666ZM132.506 28.5335C132.506 31.9357 131.404 35.6554 126.373 35.6554H125.27C120.459 35.6554 119.312 31.981 119.312 28.352V22.455H124.211V28.3974C124.211 29.7583 124.652 30.6655 125.843 30.6655C126.947 30.6655 127.432 29.849 127.432 28.352V20.3683H122.401V15.2423H127.432V8.30188C127.432 6.80492 127.124 6.07913 125.888 6.07913C124.652 6.07913 124.211 6.85029 124.211 8.30188V13.4732H119.312V8.21116C119.312 4.89971 119.93 1.17999 125.402 1.17999H126.55C131.05 1.17999 132.506 4.49145 132.506 7.93898V28.5335ZM143.364 35.2471L139.215 20.595V35.2471H134.23V1.49753H139.215V15.0155L143.143 1.49753H147.997L143.364 17.1929L148.483 35.2471H143.364Z" fill="white"/>
</g>
<defs>
<clipPath id="clip0_4119_5803">
<rect width="149" height="36" fill="white"/>
</clipPath>
</defs>
</svg>
