<svg width="14" height="18" viewBox="0 0 14 18" fill="none" xmlns="http://www.w3.org/2000/svg">
<g clip-path="url(#clip0_4129_25083)">
<g clip-path="url(#clip1_4129_25083)">
<path d="M0 3.94444C0 10.6025 5.39746 16 12.0556 16C12.3559 16 12.6538 15.989 12.9487 15.9674C13.2871 15.9426 13.4563 15.9302 13.6103 15.8416C13.7379 15.7681 13.8589 15.6379 13.9228 15.5053C14 15.3453 14 15.1585 14 14.7851V12.5939C14 12.2798 14 12.1228 13.9483 11.9882C13.9027 11.8693 13.8285 11.7634 13.7324 11.6799C13.6235 11.5853 13.476 11.5317 13.1808 11.4243L10.6866 10.5174C10.3433 10.3925 10.1716 10.3301 10.0087 10.3407C9.86505 10.35 9.72682 10.399 9.6094 10.4823C9.47622 10.5767 9.38223 10.7333 9.19425 11.0466L8.55556 12.1111C6.49455 11.1777 4.8237 9.50468 3.88889 7.44444L4.95338 6.80575C5.26668 6.61777 5.42334 6.52378 5.51773 6.3906C5.60097 6.27318 5.64999 6.13495 5.65934 5.99132C5.66993 5.82843 5.6075 5.65674 5.48264 5.31337L4.57566 2.81916C4.46834 2.52404 4.41468 2.37647 4.3201 2.26763C4.23657 2.17149 4.1307 2.09734 4.0118 2.05168C3.87719 2 3.72017 2 3.40614 2H1.2149C0.841461 2 0.654742 2 0.49465 2.0772C0.362057 2.14113 0.231885 2.26212 0.158435 2.38969C0.0697527 2.54372 0.0573619 2.71293 0.0325804 3.05134C0.0109868 3.34622 0 3.64405 0 3.94444Z" fill="#410050"/>
</g>
</g>
<defs>
<clipPath id="clip0_4129_25083">
<rect width="14" height="14" fill="white" transform="translate(0 2)"/>
</clipPath>
<clipPath id="clip1_4129_25083">
<rect width="14" height="14" fill="white" transform="translate(0 2)"/>
</clipPath>
</defs>
</svg>
