<svg width="38" height="36" viewBox="0 0 38 36" fill="none" xmlns="http://www.w3.org/2000/svg">
<path d="M7.42747 1.48793C12.387 1.16264 16.2442 1 19 1C21.7558 1 25.6148 1.16264 30.577 1.48911C31.8755 1.57447 33.1064 2.27765 34.041 3.46807C34.9757 4.65848 35.5506 6.25523 35.6591 7.96182C35.8864 11.5376 36 14.6868 36 17.4104C36 20.1671 35.8837 23.3599 35.6511 26.9899C35.543 28.6768 34.9791 30.2568 34.0618 31.4426C33.1445 32.6285 31.9347 33.3414 30.6522 33.452C26.4102 33.8173 22.5262 34 19 34C15.4747 34 11.5916 33.8173 7.35232 33.452C6.07022 33.3415 4.86071 32.6291 3.94346 31.444C3.0262 30.2589 2.46203 28.6798 2.35342 26.9934C2.11811 23.3363 2 20.1412 2 17.4104C2 14.7115 2.11542 11.5612 2.34447 7.95829C2.45335 6.25212 3.02847 4.65593 3.96309 3.466C4.89772 2.27607 6.12835 1.57323 7.42658 1.48793H7.42747Z" stroke="white" stroke-width="1.5" stroke-linejoin="round"/>
<path d="M12.0859 12.8803V23.0499C12.0858 23.229 12.1559 23.4048 12.2886 23.5585C12.4214 23.7123 12.6119 23.8382 12.8398 23.923C13.0678 24.0078 13.3247 24.0483 13.5833 24.0401C13.8418 24.0319 14.0923 23.9754 14.3082 23.8766L25.3307 18.8357C25.5277 18.7458 25.6896 18.6237 25.8019 18.4801C25.9142 18.3365 25.9735 18.1759 25.9745 18.0126C25.9755 17.8494 25.9181 17.6885 25.8076 17.5442C25.697 17.4 25.5367 17.2769 25.3408 17.1859L14.3165 12.0571C14.1011 11.9569 13.8503 11.8992 13.5911 11.89C13.3318 11.8808 13.0739 11.9205 12.8447 12.005C12.6156 12.0894 12.424 12.2153 12.2903 12.3693C12.1567 12.5233 12.086 12.6995 12.0859 12.8791V12.8803Z" stroke="white" stroke-width="1.73607" stroke-linejoin="round"/>
</svg>
