<svg width="38" height="36" viewBox="0 0 38 36" fill="none" xmlns="http://www.w3.org/2000/svg">
<path d="M24.7616 21.1842C23.9861 20.4026 23.0575 19.7683 22.0265 19.3159C23.4927 18.4682 24.7643 17.3552 25.7673 16.0418C26.7703 14.7283 27.4846 13.2407 27.8685 11.6656C27.8981 11.5584 27.9044 11.4467 27.887 11.3372C27.8697 11.2276 27.8291 11.1225 27.7676 11.0279C27.7062 10.9334 27.6251 10.8514 27.5292 10.7869C27.4333 10.7223 27.3245 10.6765 27.2094 10.6521C27.0943 10.6277 26.9751 10.6253 26.8589 10.645C26.7428 10.6647 26.632 10.706 26.5332 10.7666C26.4345 10.8272 26.3496 10.9058 26.2839 10.9978C26.2181 11.0897 26.1727 11.1931 26.1503 11.3018C25.7589 12.9146 24.9678 14.4181 23.8409 15.6902C22.7141 16.9622 21.2835 17.9671 19.6651 18.6231C19.473 18.5933 19.2774 18.5851 19.0853 18.5669V11.487C19.0804 11.4143 19.065 11.3426 19.0395 11.2737C19.0342 11.2381 19.0265 11.2027 19.0166 11.1679C18.9757 11.0806 18.9191 11.0006 18.8491 10.9315C18.8403 10.9232 18.8368 10.9116 18.8298 10.905C18.7667 10.8504 18.6954 10.8048 18.6183 10.7694C18.5936 10.7562 18.5742 10.7364 18.5496 10.7265C18.4905 10.7091 18.4297 10.6974 18.368 10.6917C18.3164 10.6765 18.2633 10.666 18.2094 10.6603L17.0551 10.657H17.0516C16.8179 10.6566 16.5936 10.7433 16.428 10.898C16.2625 11.0527 16.1692 11.2628 16.1687 11.4821C16.1682 11.7013 16.2606 11.9118 16.4255 12.0671C16.5905 12.2225 16.8144 12.31 17.0481 12.3104H17.316V21.338C17.316 21.3496 17.323 21.3595 17.323 21.371V23.0211C13.5712 20.0373 11.0691 15.9017 10.2615 11.3498C10.2185 11.1356 10.0888 10.9454 9.89953 10.819C9.71029 10.6927 9.47624 10.6399 9.24647 10.6719C9.01606 10.7083 8.81051 10.8291 8.67501 11.0077C8.53951 11.1863 8.48517 11.4081 8.52393 11.6243C9.51597 17.1683 12.8116 22.1168 17.6878 25.3838C17.7054 25.3954 17.7266 25.3905 17.7424 25.4004C17.8787 25.488 18.039 25.5368 18.2042 25.5409C18.3338 25.5394 18.4615 25.5106 18.5778 25.4566L18.6059 25.45C18.6236 25.4417 18.6341 25.4202 18.6518 25.4103C18.785 25.3363 18.8945 25.2301 18.969 25.1028C19.0423 24.9846 19.0823 24.8509 19.0853 24.7142V20.1839C20.7663 20.3812 22.3181 21.1318 23.4646 22.3019L26.367 25.2731C26.525 25.4344 26.7449 25.5303 26.9782 25.5396C27.0937 25.5442 27.2091 25.5274 27.3177 25.4902C27.4263 25.453 27.526 25.3961 27.6112 25.3227C27.6964 25.2493 27.7653 25.1609 27.814 25.0625C27.8628 24.9641 27.8904 24.8577 27.8953 24.7493C27.9002 24.6409 27.8823 24.5327 27.8427 24.4308C27.803 24.3289 27.7423 24.2353 27.6641 24.1554L24.7616 21.1842Z" fill="white"/>
<path d="M7.42747 1.48793C12.387 1.16264 16.2442 1 19 1C21.7558 1 25.6148 1.16264 30.577 1.48911C31.8755 1.57447 33.1064 2.27765 34.041 3.46807C34.9757 4.65848 35.5506 6.25523 35.6591 7.96182C35.8864 11.5376 36 14.6868 36 17.4104C36 20.1671 35.8837 23.3599 35.6511 26.9899C35.543 28.6768 34.9791 30.2568 34.0618 31.4426C33.1445 32.6285 31.9347 33.3414 30.6522 33.452C26.4102 33.8173 22.5262 34 19 34C15.4747 34 11.5916 33.8173 7.35232 33.452C6.07022 33.3415 4.86071 32.6291 3.94346 31.444C3.0262 30.2589 2.46203 28.6798 2.35342 26.9934C2.11811 23.3363 2 20.1412 2 17.4104C2 14.7115 2.11542 11.5612 2.34447 7.95829C2.45335 6.25212 3.02847 4.65593 3.96309 3.466C4.89772 2.27607 6.12835 1.57323 7.42658 1.48793H7.42747Z" stroke="white" stroke-width="1.5" stroke-linejoin="round"/>
</svg>
